<?xml version="1.0" encoding="UTF-8"?> <svg xmlns="http://www.w3.org/2000/svg" xmlns:xlink="http://www.w3.org/1999/xlink" baseProfile="tiny" x="0px" y="0px" viewBox="0 0 99.7 61" xml:space="preserve"> <g id="Master_M_and_U-M_line"> <polygon fill="#FFCF01" points="50,26.9 40.7,14.1 40.7,23.4 44.4,23.4 44.4,32.5 27.3,32.5 27.3,23.4 30.7,23.4 30.7,9.1 27.3,9.1 27.3,0 40.7,0 50,12.8 59.3,0 72.8,0 72.8,9.1 69.3,9.1 69.3,23.4 72.8,23.4 72.8,32.5 55.6,32.5 55.6,23.4 59.3,23.4 59.3,14.1 50,26.9 "></polygon> <path fill="#FFFFFF" d="M61.4,38.5 M79.2,59.6v-0.2c0.2,0,0.4,0,0.4-0.2c0-0.1,0-0.1,0-0.2l-0.1-0.3h-1.2l-0.1,0.3 c0,0.1,0,0.1,0,0.2c0,0.2,0.3,0.3,0.5,0.3v0.2h-1.4v-0.2c0.4,0,0.5-0.1,0.6-0.4l0.9-2.5l-0.1-0.1c0.4-0.1,0.5-0.2,0.7-0.3 c0.1,0.2,0.1,0.3,0.1,0.5l0.8,2.3c0.1,0.4,0.2,0.5,0.6,0.5v0.2H79.2L79.2,59.6z M78.9,56.9l-0.5,1.4h1L78.9,56.9L78.9,56.9z M67.1,58.9c-0.2,0.2-0.5,0.8-1.4,0.8c-1,0-1.7-0.8-1.7-1.7c0-0.9,0.6-1.8,1.7-1.8c0.6,0,0.9,0.3,1.1,0.4l0.2-0.2l0,1l-0.2,0 c-0.1-0.2-0.1-0.4-0.4-0.6c-0.1-0.1-0.4-0.3-0.7-0.3c-0.6,0-1.1,0.5-1.1,1.4c0,0.7,0.4,1.4,1.2,1.4c0.6,0,0.8-0.3,1-0.6L67.1,58.9 L67.1,58.9z M67.6,59.6v-0.2c0.4,0,0.4-0.1,0.4-0.4c0-0.1,0-0.2,0-0.4v-1.4c0-0.2,0-0.4,0-0.5c0-0.2-0.1-0.2-0.4-0.3v-0.2h1.5v0.2 c-0.3,0-0.4,0-0.4,0.2c0,0.1,0,0.4,0,0.6v0.5c0.3,0,0.5,0,0.8,0c0.3,0,0.5,0,0.8,0v-0.6c0-0.6,0-0.6-0.5-0.7v-0.2h1.5v0.2 c-0.4,0-0.4,0.1-0.4,0.7v1.4c0,0.1,0,0.6,0,0.7c0,0.2,0.1,0.2,0.4,0.2v0.2h-1.5v-0.2c0.3,0,0.4,0,0.5-0.3c0-0.1,0-0.2,0-0.5V58 c-0.3,0-0.5,0-0.8,0c-0.3,0-0.5,0-0.8,0v0.6c0,0.7,0,0.7,0.5,0.8v0.2H67.6L67.6,59.6z M71.8,59.6v-0.2c0.3,0,0.4-0.1,0.4-0.4v-0.4 v-1.4c0-0.7,0-0.7-0.4-0.8v-0.2h1.4v0.2c-0.4,0-0.4,0.1-0.4,0.8v1.4c0,0.1,0,0.5,0,0.6c0,0.2,0.1,0.3,0.4,0.3v0.2H71.8L71.8,59.6z M62.2,59.6v-0.2c0.3,0,0.4-0.1,0.4-0.4v-0.4v-1.4c0-0.7,0-0.7-0.4-0.8v-0.2h1.4v0.2c-0.4,0-0.4,0.1-0.4,0.8v1.4c0,0.1,0,0.5,0,0.6 c0,0.2,0.1,0.3,0.4,0.3v0.2H62.2L62.2,59.6z M60,59.6v-0.2c0.4,0,0.4,0,0.4-0.7V57l-1.2,2.6H59L57.9,57l0,2c0,0.3,0,0.4,0.4,0.4 v0.2h-1.2v-0.2c0.3,0,0.4-0.1,0.4-0.3c0-0.1,0-0.4,0-0.6l0-1.4c0-0.1,0-0.3,0-0.4c0-0.3-0.1-0.4-0.4-0.4v-0.2h1.1l1.1,2.6l1.2-2.6 h1v0.2c-0.4,0-0.4,0.1-0.4,0.6v1.4c0,0.2,0,0.5,0,0.7c0,0.2,0.1,0.3,0.4,0.3v0.2H60L60,59.6z M81,59.6v-0.2c0.3,0,0.4,0,0.4-0.2 c0-0.2,0.1-2.2,0.1-2.6c-0.2-0.2-0.3-0.2-0.5-0.2v-0.2h1c0.3,0.4,0.3,0.5,0.8,1.1l0.9,1.2V57c0-0.5,0-0.6-0.6-0.6v-0.2h1.3v0.2 c-0.4,0-0.4,0.1-0.4,0.6l0,2.6h-0.2l-0.3-0.4c-0.2-0.2-0.3-0.4-0.5-0.6L81.8,57v1.8c0,0.5,0,0.6,0.6,0.6v0.2H81L81,59.6z M52.7,57.9c0,1.2-0.8,1.8-1.7,1.8c-1,0-1.8-0.7-1.8-1.8c0-0.9,0.6-1.8,1.7-1.8C52,56.2,52.7,56.9,52.7,57.9L52.7,57.9z M51,59.4 c0.2,0,0.5-0.1,0.7-0.4c0.2-0.4,0.3-0.7,0.3-1.1c0-0.4-0.1-0.8-0.4-1.1c-0.1-0.1-0.3-0.3-0.6-0.3c-0.3,0-0.5,0.2-0.6,0.3 C50.1,57,50,57.4,50,57.8c0,0.4,0.1,0.8,0.3,1.1C50.5,59.3,50.8,59.4,51,59.4L51,59.4z M53,59.4v0.2h1.4v-0.2 c-0.4,0-0.4-0.1-0.4-0.4l0-1h0.4c0.4,0,0.6,0,0.6,0.4h0.2v-1.1H55c0,0.4-0.1,0.4-0.5,0.4H54v-1.2c0.1,0,0.2,0,0.4,0 c0.7,0,0.9,0,1,0.5h0.2l-0.1-0.8H53v0.2c0.2,0,0.4,0,0.4,0.2c0,0.1,0,0.5,0,0.6v1.2c0,0.1,0,0.5,0,0.6C53.4,59.4,53.4,59.4,53,59.4 L53,59.4z M23.9,59.6v-0.2c0.3,0,0.4-0.1,0.4-0.4v-0.4v-1.4c0-0.7,0-0.7-0.4-0.8v-0.2h1.4v0.2c-0.4,0-0.4,0.1-0.4,0.8v1.4 c0,0.1,0,0.5,0,0.6c0,0.2,0.1,0.2,0.4,0.3v0.2H23.9L23.9,59.6z M38.8,59.6v-0.2c0.3,0,0.4-0.1,0.4-0.4v-0.4v-1.4 c0-0.7,0-0.7-0.4-0.8v-0.2h1.4v0.2c-0.4,0-0.4,0.1-0.4,0.8v1.4c0,0.1,0,0.5,0,0.6c0,0.2,0.1,0.2,0.4,0.3v0.2H38.8L38.8,59.6z M19.8,59.6v-0.2c0.3,0,0.4,0,0.4-0.2c0-0.2,0.1-2.2,0.1-2.6c-0.2-0.2-0.3-0.2-0.5-0.2v-0.2h1c0.3,0.4,0.3,0.5,0.8,1.1l0.9,1.2V57 c0-0.5,0-0.6-0.6-0.6v-0.2h1.3v0.2c-0.4,0-0.4,0.1-0.4,0.6l-0.1,2.6h-0.2l-0.3-0.4c-0.2-0.2-0.3-0.4-0.5-0.6L20.6,57v1.8 c0,0.5,0,0.6,0.6,0.6v0.2H19.8L19.8,59.6z M36,58.5l0.2,0c0.2,0.6,0.5,0.9,1,0.9c0.4,0,0.7-0.2,0.7-0.5c0-0.4-0.4-0.5-0.5-0.6 c-0.1,0-0.3-0.1-0.4-0.1c-0.3-0.1-0.8-0.3-0.8-1c0-0.6,0.5-1,1.1-1c0.2,0,0.5,0,0.8,0.2l0.2-0.2l0.1,1l-0.2,0 c-0.1-0.2-0.1-0.3-0.2-0.5c-0.2-0.2-0.4-0.3-0.7-0.3c-0.4,0-0.6,0.2-0.6,0.4c0,0.4,0.4,0.5,0.8,0.7c0.2,0.1,0.4,0.1,0.5,0.2 c0.3,0.2,0.5,0.5,0.5,0.9c0,0.6-0.5,1.1-1.2,1.1c-0.5,0-0.7-0.2-0.9-0.3l-0.3-0.2L36,58.5L36,58.5z M41.6,59.6v-0.1 c0.3,0,0.4-0.1,0.4-0.4v-2.5h-0.4c-0.4,0-0.6,0-0.7,0.6h-0.2l0-1h3.1l0,1h-0.2c0-0.6-0.3-0.6-0.7-0.6h-0.4v2.5 c0,0.3,0.1,0.4,0.4,0.4v0.1H41.6L41.6,59.6z M17.2,56.2v0.2c-0.4,0-0.4,0.1-0.5,0.8v0.8c0,0.4,0,0.8,0.2,1.1 c0.2,0.3,0.5,0.3,0.6,0.3c0.5,0,0.8-0.2,0.9-0.7c0.1-0.3,0.1-0.9,0.1-1.3c0-0.1,0-0.5,0-0.6c0-0.3-0.2-0.3-0.5-0.3v-0.2h1.3v0.2 c-0.3,0-0.4,0.1-0.4,0.4c0,0.1,0,1,0,1.2c0,0.3,0,0.5-0.1,0.8c-0.2,0.9-1.1,1-1.4,1c-0.2,0-0.6,0-0.9-0.2C16,59.1,16,58.6,16,58 v-0.8c0-0.4,0-0.5,0-0.6c0-0.2-0.1-0.3-0.4-0.3v-0.2H17.2L17.2,56.2z M29.2,56.2v0.2c-0.3,0.1-0.4,0.1-0.6,0.8l-1,2.5h-0.2 l-0.9-2.5c-0.2-0.6-0.3-0.7-0.6-0.8v-0.2h1.6v0.2c-0.3,0-0.4,0-0.4,0.2c0,0.1,0,0.2,0.1,0.5l0.6,1.7l0.7-1.8c0-0.1,0.1-0.3,0.1-0.4 c0-0.2-0.2-0.3-0.5-0.3v-0.2H29.2L29.2,56.2z M45.3,59.6v-0.2c0.3,0,0.4,0,0.4-0.1c0.1-0.1,0.1-0.2,0.1-0.5v-0.6l-0.9-1.4 c-0.2-0.4-0.3-0.4-0.6-0.4v-0.2h1.8v0.2c-0.4,0-0.5,0-0.5,0.2c0,0.1,0.1,0.2,0.1,0.3l0.5,0.8l0.5-0.8c0.1-0.2,0.1-0.3,0.1-0.3 c0-0.2-0.1-0.2-0.4-0.2v-0.2h1.3v0.2c-0.3,0-0.4,0.1-0.8,0.7L46.4,58v0.7c0,0.6,0,0.7,0.5,0.7v0.2H45.3L45.3,59.6z M32.1,59.6 c0-0.2,0-0.6,0.1-0.9H32c-0.1,0.6-0.5,0.6-0.9,0.6c-0.5,0-0.5-0.1-0.5-0.3v-1h0.4c0.4,0,0.5,0,0.5,0.4h0.2v-1.1h-0.2 c0,0.3-0.1,0.4-0.5,0.4h-0.4v-1.2h0.4c0.6,0,0.8,0,0.9,0.5h0.2l0-0.8h-2.4v0.2c0.2,0,0.4,0,0.4,0.2c0,0.1,0,0.5,0,0.6v1.2 c0,0.1,0,0.5,0,0.6c0,0.4-0.1,0.4-0.4,0.4v0.2H32.1L32.1,59.6z M77,58.1v0.2c-0.3,0-0.3,0.1-0.3,0.8v0.3c-0.3,0.2-0.6,0.4-1.3,0.4 c-1.2,0-1.7-0.9-1.7-1.8c0-1.1,0.7-1.8,1.7-1.8c0.6,0,0.9,0.2,1.2,0.4l0.2-0.2l0,1.1l-0.1,0c-0.1-0.2-0.2-0.4-0.4-0.7 c-0.1-0.1-0.3-0.2-0.7-0.2c-0.6,0-1.1,0.5-1.1,1.5c0,0.8,0.4,1.4,1,1.4c0.4,0,0.6-0.3,0.6-0.3c0.1-0.1,0.1-0.2,0.1-0.3 c0-0.4-0.1-0.4-0.4-0.5v-0.2H77L77,58.1z M33.7,57.8c0.1,0,0.2,0,0.3,0c0.4,0,0.7-0.3,0.7-0.6c0-0.4-0.2-0.7-0.8-0.7 c-0.1,0-0.1,0-0.2,0V57.8L33.7,57.8z M33.7,58.5c0,0.8,0,0.9,0.4,0.9v0.2h-1.4v-0.2c0.4,0,0.4-0.1,0.4-0.5c0-0.1,0-0.3,0-0.4v-1.2 c0-0.4,0-0.5,0-0.7c0-0.2-0.1-0.2-0.4-0.2v-0.2l1.5,0c0.8,0,1.1,0.4,1.1,0.9c0,0.3-0.2,0.8-0.7,0.9l0.6,1c0.2,0.4,0.3,0.5,0.6,0.5 v0.1c-0.1,0-0.1,0-0.2,0c-0.6,0-0.9-0.2-1.2-0.8l-0.2-0.4c-0.2-0.4-0.3-0.4-0.6-0.4L33.7,58.5L33.7,58.5z M33.7,58.5 M24.3,52.6 M31.9,52.6 M38.7,52.6 M40.4,52.6 M46,52.6 M48.9,52.6 M53.5,52.6 M63,52.6 M68.6,52.6 M75.4,52.6"></path> </g> <g id="CoE" display="none"> <g display="inline"> <path fill="#002D62" d="M30.1,43.6v-6.5h2.2l1,4.4h0l1.1-4.4h2.1v6.5h-1.3v-5h0l-1.3,5h-1.3l-1.2-5h0v5H30.1z"></path> <path fill="#002D62" d="M37.6,43.6v-6.5H39v6.5H37.6z"></path> <path fill="#002D62" d="M40.1,40.3c0-1.7,0-3.4,2.2-3.4c1.4,0,1.9,0.8,1.9,2.2h-1.3c0-0.9-0.2-1.2-0.6-1.2c-0.8,0-0.9,0.7-0.9,2.4 s0.1,2.4,0.9,2.4c0.6,0,0.6-0.8,0.6-1.3h1.3c0,1.7-0.7,2.3-2,2.3C40.1,43.7,40.1,42,40.1,40.3z"></path> <path fill="#002D62" d="M48.1,39.7v-2.6h1.4v6.5h-1.4v-2.9h-1.6v2.9h-1.4v-6.5h1.4v2.6H48.1z"></path> <path fill="#002D62" d="M50.6,43.6v-6.5H52v6.5H50.6z"></path> <path fill="#002D62" d="M56.1,39.1c0-0.6-0.1-1.1-0.8-1.1c-0.8,0-0.8,1.1-0.8,2.4c0,2,0.2,2.4,1,2.4c0.2,0,0.5-0.1,0.7-0.1v-1.4 h-0.7v-1h2.1v3.3c-0.4,0.1-1.3,0.2-1.8,0.2c-2.3,0-2.5-0.9-2.5-3.4c0-1.6,0.1-3.3,2.3-3.3c1.3,0,2.2,0.7,2.1,2.1H56.1z"></path> <path fill="#002D62" d="M58.2,43.6l1.8-6.5h1.8l1.8,6.5h-1.4l-0.4-1.4h-1.9l-0.4,1.4H58.2z M60.8,38.3L60.8,38.3l-0.6,2.8h1.3 L60.8,38.3z"></path> <path fill="#002D62" d="M64.2,43.6v-6.5H66l1.7,4.5h0v-4.5H69v6.5h-1.8l-1.8-4.8h0v4.8H64.2z"></path> <path fill="#002D62" d="M23.9,52.6v-6.5h3.5v1h-2.2v1.6h2v1h-2v1.9h2.3v1H23.9z"></path> <path fill="#002D62" d="M28.4,52.6v-6.5h1.8l1.7,4.5h0v-4.5h1.3v6.5h-1.8l-1.8-4.8h0v4.8H28.4z"></path> <path fill="#002D62" d="M37.4,48.1c0-0.6-0.1-1.1-0.8-1.1c-0.8,0-0.8,1.1-0.8,2.4c0,2,0.2,2.4,1,2.4c0.2,0,0.5-0.1,0.7-0.1v-1.4 h-0.7v-1h2.1v3.3c-0.4,0.1-1.3,0.2-1.8,0.2c-2.3,0-2.5-0.9-2.5-3.4c0-1.6,0.1-3.3,2.3-3.3c1.3,0,2.2,0.7,2.1,2.1H37.4z"></path> <path fill="#002D62" d="M39.9,52.6v-6.5h1.4v6.5H39.9z"></path> <path fill="#002D62" d="M42.4,52.6v-6.5h1.8l1.7,4.5h0v-4.5h1.3v6.5h-1.8l-1.8-4.8h0v4.8H42.4z"></path> <path fill="#002D62" d="M48.4,52.6v-6.5h3.5v1h-2.2v1.6h2v1h-2v1.9H52v1H48.4z"></path> <path fill="#002D62" d="M52.9,52.6v-6.5h3.5v1h-2.2v1.6h2v1h-2v1.9h2.3v1H52.9z"></path> <path fill="#002D62" d="M58.7,52.6h-1.4v-6.5h2.5c0.9,0,1.5,0.6,1.5,1.7c0,0.8-0.3,1.4-1.2,1.6v0c0.3,0,1.2,0.1,1.2,1.3 c0,0.4,0,1.6,0.2,1.9h-1.3c-0.2-0.4-0.1-0.8-0.1-1.3c0-0.8,0.1-1.4-1-1.4h-0.4V52.6z M58.7,48.9h0.6c0.5,0,0.7-0.5,0.7-1 c0-0.6-0.3-0.9-0.7-0.9h-0.6V48.9z"></path> <path fill="#002D62" d="M62.4,52.6v-6.5h1.4v6.5H62.4z"></path> <path fill="#002D62" d="M64.9,52.6v-6.5h1.8l1.7,4.5h0v-4.5h1.3v6.5H68l-1.8-4.8h0v4.8H64.9z"></path> <path fill="#002D62" d="M73.9,48.1c0-0.6-0.1-1.1-0.8-1.1c-0.8,0-0.8,1.1-0.8,2.4c0,2,0.2,2.4,1,2.4c0.2,0,0.5-0.1,0.7-0.1v-1.4 h-0.7v-1h2.1v3.3c-0.4,0.1-1.3,0.2-1.8,0.2c-2.3,0-2.5-0.9-2.5-3.4c0-1.6,0.1-3.3,2.3-3.3c1.3,0,2.2,0.7,2.1,2.1H73.9z"></path> </g> </g> <g id="AERO" display="none"> <g display="inline"> <path fill="#002D62" d="M26.1,43.6l1.8-6.5h1.8l1.8,6.5H30l-0.4-1.4h-1.9l-0.4,1.4H26.1z M28.7,38.3L28.7,38.3l-0.6,2.8h1.3 L28.7,38.3z"></path> <path fill="#002D62" d="M32.1,43.6v-6.5h3.5v1h-2.2v1.6h2v1h-2v1.9h2.3v1H32.1z"></path> <path fill="#002D62" d="M37.9,43.6h-1.4v-6.5h2.5c0.9,0,1.5,0.6,1.5,1.7c0,0.8-0.3,1.4-1.2,1.6v0c0.3,0,1.2,0.1,1.2,1.3 c0,0.4,0,1.6,0.2,1.9h-1.3c-0.2-0.4-0.1-0.8-0.1-1.3c0-0.8,0.1-1.4-1-1.4h-0.4V43.6z M37.9,39.9h0.6c0.5,0,0.7-0.5,0.7-1 c0-0.6-0.3-0.9-0.7-0.9h-0.6V39.9z"></path> <path fill="#002D62" d="M41.6,40.3c0-1.7,0-3.4,2.2-3.4c2.2,0,2.2,1.6,2.2,3.4c0,1.7,0,3.4-2.2,3.4C41.6,43.7,41.6,42,41.6,40.3z M44.7,40.3c0-1.7-0.1-2.4-0.9-2.4c-0.8,0-0.9,0.7-0.9,2.4s0.1,2.4,0.9,2.4C44.6,42.7,44.7,42,44.7,40.3z"></path> <path fill="#002D62" d="M48.9,43.7c-1.7,0-2-1-1.9-2.1h1.4c0,0.6,0,1.1,0.8,1.1c0.5,0,0.7-0.3,0.7-0.7c0-1.2-2.7-1.2-2.7-3.2 c0-1,0.5-1.8,2.1-1.8c1.3,0,2,0.6,1.9,2h-1.3c0-0.5-0.1-1-0.6-1c-0.4,0-0.7,0.2-0.7,0.7c0,1.2,2.7,1.1,2.7,3.2 C51.2,43.5,49.9,43.7,48.9,43.7z"></path> <path fill="#002D62" d="M52.1,37.1h2.4c1.2,0,1.7,0.8,1.7,1.9c0,0.7-0.2,1.9-1.8,1.9h-1v2.6h-1.4V37.1z M53.5,39.9h0.8 c0.4,0,0.7-0.4,0.7-0.9c0-0.5-0.1-1-0.8-1h-0.7V39.9z"></path> <path fill="#002D62" d="M56.2,43.6l1.8-6.5h1.8l1.8,6.5h-1.4l-0.4-1.4h-1.9l-0.4,1.4H56.2z M58.8,38.3L58.8,38.3l-0.6,2.8h1.3 L58.8,38.3z"></path> <path fill="#002D62" d="M62.1,40.3c0-1.7,0-3.4,2.2-3.4c1.4,0,1.9,0.8,1.9,2.2h-1.3c0-0.9-0.2-1.2-0.6-1.2c-0.8,0-0.9,0.7-0.9,2.4 s0.1,2.4,0.9,2.4c0.6,0,0.6-0.8,0.6-1.3h1.3c0,1.7-0.7,2.3-2,2.3C62.1,43.7,62.1,42,62.1,40.3z"></path> <path fill="#002D62" d="M67.2,43.6v-6.5h3.5v1h-2.2v1.6h2v1h-2v1.9h2.3v1H67.2z"></path> <path fill="#002D62" d="M23.9,52.6v-6.5h3.5v1h-2.2v1.6h2v1h-2v1.9h2.3v1H23.9z"></path> <path fill="#002D62" d="M28.4,52.6v-6.5h1.8l1.7,4.5h0v-4.5h1.3v6.5h-1.8l-1.8-4.8h0v4.8H28.4z"></path> <path fill="#002D62" d="M37.4,48.1c0-0.6-0.1-1.1-0.8-1.1c-0.8,0-0.8,1.1-0.8,2.4c0,2,0.2,2.4,1,2.4c0.2,0,0.5-0.1,0.7-0.1v-1.4 h-0.7v-1h2.1v3.3c-0.4,0.1-1.3,0.2-1.8,0.2c-2.3,0-2.5-0.9-2.5-3.4c0-1.6,0.1-3.3,2.3-3.3c1.3,0,2.2,0.7,2.1,2.1H37.4z"></path> <path fill="#002D62" d="M39.9,52.6v-6.5h1.4v6.5H39.9z"></path> <path fill="#002D62" d="M42.4,52.6v-6.5h1.8l1.7,4.5h0v-4.5h1.3v6.5h-1.8l-1.8-4.8h0v4.8H42.4z"></path> <path fill="#002D62" d="M48.4,52.6v-6.5h3.5v1h-2.2v1.6h2v1h-2v1.9H52v1H48.4z"></path> <path fill="#002D62" d="M52.9,52.6v-6.5h3.5v1h-2.2v1.6h2v1h-2v1.9h2.3v1H52.9z"></path> <path fill="#002D62" d="M58.7,52.6h-1.4v-6.5h2.5c0.9,0,1.5,0.6,1.5,1.7c0,0.8-0.3,1.4-1.2,1.6v0c0.3,0,1.2,0.1,1.2,1.3 c0,0.4,0,1.6,0.2,1.9h-1.3c-0.2-0.4-0.1-0.8-0.1-1.3c0-0.8,0.1-1.4-1-1.4h-0.4V52.6z M58.7,48.9h0.6c0.5,0,0.7-0.5,0.7-1 c0-0.6-0.3-0.9-0.7-0.9h-0.6V48.9z"></path> <path fill="#002D62" d="M62.4,52.6v-6.5h1.4v6.5H62.4z"></path> <path fill="#002D62" d="M64.9,52.6v-6.5h1.8l1.7,4.5h0v-4.5h1.3v6.5H68l-1.8-4.8h0v4.8H64.9z"></path> <path fill="#002D62" d="M73.9,48.1c0-0.6-0.1-1.1-0.8-1.1c-0.8,0-0.8,1.1-0.8,2.4c0,2,0.2,2.4,1,2.4c0.2,0,0.5-0.1,0.7-0.1v-1.4 h-0.7v-1h2.1v3.3c-0.4,0.1-1.3,0.2-1.8,0.2c-2.3,0-2.5-0.9-2.5-3.4c0-1.6,0.1-3.3,2.3-3.3c1.3,0,2.2,0.7,2.1,2.1H73.9z"></path> </g> </g> <g id="AOSS" display="none"> <g display="inline"> <path fill="#002D62" d="M2.2,43.6L4,37.1h1.8l1.8,6.5H6.1l-0.4-1.4H3.9l-0.4,1.4H2.2z M4.8,38.3L4.8,38.3l-0.6,2.8h1.3L4.8,38.3z"></path> <path fill="#002D62" d="M11.5,37.1v1.1H10v5.4H8.6v-5.4H7.1v-1.1H11.5z"></path> <path fill="#002D62" d="M12.1,43.6v-6.5h2.2l1,4.4h0l1.1-4.4h2.1v6.5h-1.3v-5h0l-1.3,5h-1.3l-1.2-5h0v5H12.1z"></path> <path fill="#002D62" d="M19.6,40.3c0-1.7,0-3.4,2.2-3.4c2.2,0,2.2,1.6,2.2,3.4c0,1.7,0,3.4-2.2,3.4C19.6,43.7,19.6,42,19.6,40.3z M22.7,40.3c0-1.7-0.1-2.4-0.9-2.4c-0.8,0-0.9,0.7-0.9,2.4s0.1,2.4,0.9,2.4C22.6,42.7,22.7,42,22.7,40.3z"></path> <path fill="#002D62" d="M26.9,43.7c-1.7,0-2-1-1.9-2.1h1.4c0,0.6,0,1.1,0.8,1.1c0.5,0,0.7-0.3,0.7-0.7c0-1.2-2.7-1.2-2.7-3.2 c0-1,0.5-1.8,2.1-1.8c1.3,0,2,0.6,1.9,2h-1.3c0-0.5-0.1-1-0.6-1c-0.4,0-0.7,0.2-0.7,0.7c0,1.2,2.7,1.1,2.7,3.2 C29.1,43.5,27.9,43.7,26.9,43.7z"></path> <path fill="#002D62" d="M30.1,37.1h2.4c1.2,0,1.7,0.8,1.7,1.9c0,0.7-0.2,1.9-1.8,1.9h-1v2.6h-1.4V37.1z M31.5,39.9h0.8 c0.4,0,0.7-0.4,0.7-0.9c0-0.5-0.1-1-0.8-1h-0.7V39.9z"></path> <path fill="#002D62" d="M38.1,39.7v-2.6h1.4v6.5h-1.4v-2.9h-1.6v2.9h-1.4v-6.5h1.4v2.6H38.1z"></path> <path fill="#002D62" d="M40.6,43.6v-6.5h3.5v1H42v1.6h2v1h-2v1.9h2.3v1H40.6z"></path> <path fill="#002D62" d="M46.5,43.6h-1.4v-6.5h2.5c0.9,0,1.5,0.6,1.5,1.7c0,0.8-0.3,1.4-1.2,1.6v0c0.3,0,1.2,0.1,1.2,1.3 c0,0.4,0,1.6,0.2,1.9h-1.3c-0.2-0.4-0.1-0.8-0.1-1.3c0-0.8,0.1-1.4-1-1.4h-0.4V43.6z M46.5,39.9h0.6c0.5,0,0.7-0.5,0.7-1 c0-0.6-0.3-0.9-0.7-0.9h-0.6V39.9z"></path> <path fill="#002D62" d="M50.1,43.6v-6.5h1.4v6.5H50.1z"></path> <path fill="#002D62" d="M52.6,40.3c0-1.7,0-3.4,2.2-3.4c1.4,0,1.9,0.8,1.9,2.2h-1.3c0-0.9-0.2-1.2-0.6-1.2c-0.8,0-0.9,0.7-0.9,2.4 s0.1,2.4,0.9,2.4c0.6,0,0.6-0.8,0.6-1.3h1.3c0,1.7-0.7,2.3-2,2.3C52.6,43.7,52.6,42,52.6,40.3z"></path> <path fill="#002D62" d="M57.7,42.4h1.2l-0.7,2.1h-0.9L57.7,42.4z"></path> <path fill="#002D62" d="M61.6,40.3c0-1.7,0-3.4,2.2-3.4c2.2,0,2.2,1.6,2.2,3.4c0,1.7,0,3.4-2.2,3.4C61.6,43.7,61.6,42,61.6,40.3z M64.7,40.3c0-1.7-0.1-2.4-0.9-2.4c-0.8,0-0.9,0.7-0.9,2.4s0.1,2.4,0.9,2.4C64.6,42.7,64.7,42,64.7,40.3z"></path> <path fill="#002D62" d="M67.1,40.3c0-1.7,0-3.4,2.2-3.4c1.4,0,1.9,0.8,1.9,2.2h-1.3c0-0.9-0.2-1.2-0.6-1.2c-0.8,0-0.9,0.7-0.9,2.4 s0.1,2.4,0.9,2.4c0.6,0,0.6-0.8,0.6-1.3h1.3c0,1.7-0.7,2.3-2,2.3C67.1,43.7,67.1,42,67.1,40.3z"></path> <path fill="#002D62" d="M72.1,43.6v-6.5h3.5v1h-2.2v1.6h2v1h-2v1.9h2.3v1H72.1z"></path> <path fill="#002D62" d="M76.1,43.6l1.8-6.5h1.8l1.8,6.5h-1.4l-0.4-1.4h-1.9l-0.4,1.4H76.1z M78.8,38.3L78.8,38.3l-0.6,2.8h1.3 L78.8,38.3z"></path> <path fill="#002D62" d="M82.1,43.6v-6.5H84l1.7,4.5h0v-4.5H87v6.5h-1.8l-1.8-4.8h0v4.8H82.1z"></path> <path fill="#002D62" d="M88.1,43.6v-6.5h1.4v6.5H88.1z"></path> <path fill="#002D62" d="M90.6,40.3c0-1.7,0-3.4,2.2-3.4c1.4,0,1.9,0.8,1.9,2.2h-1.3c0-0.9-0.2-1.2-0.6-1.2c-0.8,0-0.9,0.7-0.9,2.4 s0.1,2.4,0.9,2.4c0.6,0,0.6-0.8,0.6-1.3h1.3c0,1.7-0.7,2.3-2,2.3C90.6,43.7,90.6,42,90.6,40.3z"></path> <path fill="#002D62" d="M17.8,52.1c-0.5,0.5-1.1,0.6-1.8,0.6c-1.5,0-2.3-0.7-2.3-2c0-0.9,0.6-1.4,1.3-1.9c-0.3-0.4-0.7-1-0.7-1.6 c0-0.7,0.9-1.3,2-1.3c0.6,0,1.6,0.3,1.6,1.3c0,0.8-0.6,1.3-1.1,1.7l1,1.3c0.1-0.4,0.1-0.7,0.1-1.3H19c0,0.7,0,1.5-0.4,2.2l1,1.3 h-1.3L17.8,52.1z M15.7,49.7c-0.3,0.3-0.7,0.6-0.7,1.1c0,0.6,0.4,1,1,1c0.4,0,0.8-0.1,1-0.4L15.7,49.7z M16.6,47.3 c0-0.3-0.2-0.6-0.6-0.6c-0.3,0-0.6,0.2-0.6,0.5c0,0.4,0.2,0.7,0.5,0.9C16.2,48,16.6,47.7,16.6,47.3z"></path> <path fill="#002D62" d="M23.9,52.7c-1.7,0-2-1-1.9-2.1h1.4c0,0.6,0,1.1,0.8,1.1c0.5,0,0.7-0.3,0.7-0.7c0-1.2-2.7-1.2-2.7-3.2 c0-1,0.5-1.8,2.1-1.8c1.3,0,2,0.6,1.9,2h-1.3c0-0.5-0.1-1-0.6-1c-0.4,0-0.7,0.2-0.7,0.7c0,1.2,2.7,1.1,2.7,3.2 C26.1,52.5,24.9,52.7,23.9,52.7z"></path> <path fill="#002D62" d="M27.1,46.1h2.4c1.2,0,1.7,0.8,1.7,1.9c0,0.7-0.2,1.9-1.8,1.9h-1v2.6h-1.4V46.1z M28.5,48.9h0.8 c0.4,0,0.7-0.4,0.7-0.9c0-0.5-0.1-1-0.8-1h-0.7V48.9z"></path> <path fill="#002D62" d="M31.2,52.6l1.8-6.5h1.8l1.8,6.5h-1.4l-0.4-1.4h-1.9l-0.4,1.4H31.2z M33.8,47.3L33.8,47.3l-0.6,2.8h1.3 L33.8,47.3z"></path> <path fill="#002D62" d="M37.1,49.3c0-1.7,0-3.4,2.2-3.4c1.4,0,1.9,0.8,1.9,2.2h-1.3c0-0.9-0.2-1.2-0.6-1.2c-0.8,0-0.9,0.7-0.9,2.4 s0.1,2.4,0.9,2.4c0.6,0,0.6-0.8,0.6-1.3h1.3c0,1.7-0.7,2.3-2,2.3C37.1,52.7,37.1,51,37.1,49.3z"></path> <path fill="#002D62" d="M42.2,52.6v-6.5h3.5v1h-2.2v1.6h2v1h-2v1.9h2.3v1H42.2z"></path> <path fill="#002D62" d="M50.4,52.7c-1.7,0-2-1-1.9-2.1h1.4c0,0.6,0,1.1,0.8,1.1c0.5,0,0.7-0.3,0.7-0.7c0-1.2-2.7-1.2-2.7-3.2 c0-1,0.5-1.8,2.1-1.8c1.3,0,2,0.6,1.9,2h-1.3c0-0.5-0.1-1-0.6-1c-0.4,0-0.7,0.2-0.7,0.7c0,1.2,2.7,1.1,2.7,3.2 C52.7,52.5,51.5,52.7,50.4,52.7z"></path> <path fill="#002D62" d="M53.6,49.3c0-1.7,0-3.4,2.2-3.4c1.4,0,1.9,0.8,1.9,2.2h-1.3c0-0.9-0.2-1.2-0.6-1.2c-0.8,0-0.9,0.7-0.9,2.4 s0.1,2.4,0.9,2.4c0.6,0,0.6-0.8,0.6-1.3h1.3c0,1.7-0.7,2.3-2,2.3C53.6,52.7,53.6,51,53.6,49.3z"></path> <path fill="#002D62" d="M58.7,52.6v-6.5H60v6.5H58.7z"></path> <path fill="#002D62" d="M61.2,52.6v-6.5h3.5v1h-2.2v1.6h2v1h-2v1.9h2.3v1H61.2z"></path> <path fill="#002D62" d="M65.7,52.6v-6.5h1.8l1.7,4.5h0v-4.5h1.3v6.5h-1.8L67,47.8h0v4.8H65.7z"></path> <path fill="#002D62" d="M71.6,49.3c0-1.7,0-3.4,2.2-3.4c1.4,0,1.9,0.8,1.9,2.2h-1.3c0-0.9-0.2-1.2-0.6-1.2c-0.8,0-0.9,0.7-0.9,2.4 s0.1,2.4,0.9,2.4c0.6,0,0.6-0.8,0.6-1.3h1.3c0,1.7-0.7,2.3-2,2.3C71.6,52.7,71.6,51,71.6,49.3z"></path> <path fill="#002D62" d="M76.7,52.6v-6.5h3.5v1H78v1.6h2v1h-2v1.9h2.3v1H76.7z"></path> <path fill="#002D62" d="M82.9,52.7c-1.7,0-2-1-1.9-2.1h1.4c0,0.6,0,1.1,0.8,1.1c0.5,0,0.7-0.3,0.7-0.7c0-1.2-2.7-1.2-2.7-3.2 c0-1,0.5-1.8,2.1-1.8c1.3,0,2,0.6,1.9,2h-1.3c0-0.5-0.1-1-0.6-1c-0.4,0-0.7,0.2-0.7,0.7c0,1.2,2.7,1.1,2.7,3.2 C85.2,52.5,84,52.7,82.9,52.7z"></path> </g> </g> <g id="BME" display="none"> <g display="inline"> <path fill="#002D62" d="M26.2,43.6v-6.5h2.4c1,0,1.9,0.3,1.9,1.7c0,0.7-0.4,1.3-1.1,1.4v0c1,0.1,1.2,0.8,1.2,1.6 c0,1.6-1.4,1.7-2,1.7H26.2z M27.5,39.7h0.9c0.3,0,0.7-0.2,0.7-0.8c0-0.5-0.3-0.8-0.8-0.8h-0.8V39.7z M27.5,42.6h0.8 c0.3,0,0.9,0,0.9-0.9c0-0.6-0.2-0.9-0.9-0.9h-0.8V42.6z"></path> <path fill="#002D62" d="M31.6,43.6v-6.5H33v6.5H31.6z"></path> <path fill="#002D62" d="M34.1,40.3c0-1.7,0-3.4,2.2-3.4c2.2,0,2.2,1.6,2.2,3.4c0,1.7,0,3.4-2.2,3.4C34.1,43.7,34.1,42,34.1,40.3z M37.2,40.3c0-1.7-0.1-2.4-0.9-2.4c-0.8,0-0.9,0.7-0.9,2.4s0.1,2.4,0.9,2.4C37.1,42.7,37.2,42,37.2,40.3z"></path> <path fill="#002D62" d="M39.6,43.6v-6.5h2.2l1,4.4h0l1.1-4.4H46v6.5h-1.3v-5h0l-1.3,5h-1.3l-1.2-5h0v5H39.6z"></path> <path fill="#002D62" d="M47.1,43.6v-6.5h3.5v1h-2.2v1.6h2v1h-2v1.9h2.3v1H47.1z"></path> <path fill="#002D62" d="M51.7,37.1h2.3c1.8,0,2.1,1.2,2.1,3.2c0,1,0.2,3.3-2.2,3.3h-2.2V37.1z M53,42.6h0.7c0.8,0,1-0.6,1-2.3 c0-1.2,0-2.3-0.9-2.3H53V42.6z"></path> <path fill="#002D62" d="M57.1,43.6v-6.5h1.4v6.5H57.1z"></path> <path fill="#002D62" d="M59.6,40.3c0-1.7,0-3.4,2.2-3.4c1.4,0,1.9,0.8,1.9,2.2h-1.3c0-0.9-0.2-1.2-0.6-1.2c-0.8,0-0.9,0.7-0.9,2.4 s0.1,2.4,0.9,2.4c0.6,0,0.6-0.8,0.6-1.3h1.3c0,1.7-0.7,2.3-2,2.3C59.6,43.7,59.6,42,59.6,40.3z"></path> <path fill="#002D62" d="M64.2,43.6l1.8-6.5h1.8l1.8,6.5h-1.4l-0.4-1.4h-1.9l-0.4,1.4H64.2z M66.8,38.3L66.8,38.3l-0.6,2.8h1.3 L66.8,38.3z"></path> <path fill="#002D62" d="M70.2,43.6v-6.5h1.4v5.4h2v1.1H70.2z"></path> <path fill="#002D62" d="M23.9,52.6v-6.5h3.5v1h-2.2v1.6h2v1h-2v1.9h2.3v1H23.9z"></path> <path fill="#002D62" d="M28.4,52.6v-6.5h1.8l1.7,4.5h0v-4.5h1.3v6.5h-1.8l-1.8-4.8h0v4.8H28.4z"></path> <path fill="#002D62" d="M37.4,48.1c0-0.6-0.1-1.1-0.8-1.1c-0.8,0-0.8,1.1-0.8,2.4c0,2,0.2,2.4,1,2.4c0.2,0,0.5-0.1,0.7-0.1v-1.4 h-0.7v-1h2.1v3.3c-0.4,0.1-1.3,0.2-1.8,0.2c-2.3,0-2.5-0.9-2.5-3.4c0-1.6,0.1-3.3,2.3-3.3c1.3,0,2.2,0.7,2.1,2.1H37.4z"></path> <path fill="#002D62" d="M39.9,52.6v-6.5h1.4v6.5H39.9z"></path> <path fill="#002D62" d="M42.4,52.6v-6.5h1.8l1.7,4.5h0v-4.5h1.3v6.5h-1.8l-1.8-4.8h0v4.8H42.4z"></path> <path fill="#002D62" d="M48.4,52.6v-6.5h3.5v1h-2.2v1.6h2v1h-2v1.9H52v1H48.4z"></path> <path fill="#002D62" d="M52.9,52.6v-6.5h3.5v1h-2.2v1.6h2v1h-2v1.9h2.3v1H52.9z"></path> <path fill="#002D62" d="M58.7,52.6h-1.4v-6.5h2.5c0.9,0,1.5,0.6,1.5,1.7c0,0.8-0.3,1.4-1.2,1.6v0c0.3,0,1.2,0.1,1.2,1.3 c0,0.4,0,1.6,0.2,1.9h-1.3c-0.2-0.4-0.1-0.8-0.1-1.3c0-0.8,0.1-1.4-1-1.4h-0.4V52.6z M58.7,48.9h0.6c0.5,0,0.7-0.5,0.7-1 c0-0.6-0.3-0.9-0.7-0.9h-0.6V48.9z"></path> <path fill="#002D62" d="M62.4,52.6v-6.5h1.4v6.5H62.4z"></path> <path fill="#002D62" d="M64.9,52.6v-6.5h1.8l1.7,4.5h0v-4.5h1.3v6.5H68l-1.8-4.8h0v4.8H64.9z"></path> <path fill="#002D62" d="M73.9,48.1c0-0.6-0.1-1.1-0.8-1.1c-0.8,0-0.8,1.1-0.8,2.4c0,2,0.2,2.4,1,2.4c0.2,0,0.5-0.1,0.7-0.1v-1.4 h-0.7v-1h2.1v3.3c-0.4,0.1-1.3,0.2-1.8,0.2c-2.3,0-2.5-0.9-2.5-3.4c0-1.6,0.1-3.3,2.3-3.3c1.3,0,2.2,0.7,2.1,2.1H73.9z"></path> </g> </g> <g id="ChE" display="none"> <g display="inline"> <path fill="#002D62" d="M30.3,40.3c0-1.7,0-3.4,2.2-3.4c1.4,0,1.9,0.8,1.9,2.2h-1.3c0-0.9-0.2-1.2-0.6-1.2c-0.8,0-0.9,0.7-0.9,2.4 s0.1,2.4,0.9,2.4c0.6,0,0.6-0.8,0.6-1.3h1.3c0,1.7-0.7,2.3-2,2.3C30.3,43.7,30.3,42,30.3,40.3z"></path> <path fill="#002D62" d="M38.4,39.7v-2.6h1.4v6.5h-1.4v-2.9h-1.6v2.9h-1.4v-6.5h1.4v2.6H38.4z"></path> <path fill="#002D62" d="M40.9,43.6v-6.5h3.5v1h-2.2v1.6h2v1h-2v1.9h2.3v1H40.9z"></path> <path fill="#002D62" d="M45.4,43.6v-6.5h2.2l1,4.4h0l1.1-4.4h2.1v6.5h-1.3v-5h0l-1.3,5h-1.3l-1.2-5h0v5H45.4z"></path> <path fill="#002D62" d="M52.9,43.6v-6.5h1.4v6.5H52.9z"></path> <path fill="#002D62" d="M55.3,40.3c0-1.7,0-3.4,2.2-3.4c1.4,0,1.9,0.8,1.9,2.2h-1.3c0-0.9-0.2-1.2-0.6-1.2c-0.8,0-0.9,0.7-0.9,2.4 s0.1,2.4,0.9,2.4c0.6,0,0.6-0.8,0.6-1.3h1.3c0,1.7-0.7,2.3-2,2.3C55.3,43.7,55.3,42,55.3,40.3z"></path> <path fill="#002D62" d="M59.9,43.6l1.8-6.5h1.8l1.8,6.5h-1.4l-0.4-1.4h-1.9l-0.4,1.4H59.9z M62.5,38.3L62.5,38.3l-0.6,2.8h1.3 L62.5,38.3z"></path> <path fill="#002D62" d="M65.9,43.6v-6.5h1.4v5.4h2v1.1H65.9z"></path> <path fill="#002D62" d="M23.9,52.6v-6.5h3.5v1h-2.2v1.6h2v1h-2v1.9h2.3v1H23.9z"></path> <path fill="#002D62" d="M28.4,52.6v-6.5h1.8l1.7,4.5h0v-4.5h1.3v6.5h-1.8l-1.8-4.8h0v4.8H28.4z"></path> <path fill="#002D62" d="M37.4,48.1c0-0.6-0.1-1.1-0.8-1.1c-0.8,0-0.8,1.1-0.8,2.4c0,2,0.2,2.4,1,2.4c0.2,0,0.5-0.1,0.7-0.1v-1.4 h-0.7v-1h2.1v3.3c-0.4,0.1-1.3,0.2-1.8,0.2c-2.3,0-2.5-0.9-2.5-3.4c0-1.6,0.1-3.3,2.3-3.3c1.3,0,2.2,0.7,2.1,2.1H37.4z"></path> <path fill="#002D62" d="M39.9,52.6v-6.5h1.4v6.5H39.9z"></path> <path fill="#002D62" d="M42.4,52.6v-6.5h1.8l1.7,4.5h0v-4.5h1.3v6.5h-1.8l-1.8-4.8h0v4.8H42.4z"></path> <path fill="#002D62" d="M48.4,52.6v-6.5h3.5v1h-2.2v1.6h2v1h-2v1.9H52v1H48.4z"></path> <path fill="#002D62" d="M52.9,52.6v-6.5h3.5v1h-2.2v1.6h2v1h-2v1.9h2.3v1H52.9z"></path> <path fill="#002D62" d="M58.7,52.6h-1.4v-6.5h2.5c0.9,0,1.5,0.6,1.5,1.7c0,0.8-0.3,1.4-1.2,1.6v0c0.3,0,1.2,0.1,1.2,1.3 c0,0.4,0,1.6,0.2,1.9h-1.3c-0.2-0.4-0.1-0.8-0.1-1.3c0-0.8,0.1-1.4-1-1.4h-0.4V52.6z M58.7,48.9h0.6c0.5,0,0.7-0.5,0.7-1 c0-0.6-0.3-0.9-0.7-0.9h-0.6V48.9z"></path> <path fill="#002D62" d="M62.4,52.6v-6.5h1.4v6.5H62.4z"></path> <path fill="#002D62" d="M64.9,52.6v-6.5h1.8l1.7,4.5h0v-4.5h1.3v6.5H68l-1.8-4.8h0v4.8H64.9z"></path> <path fill="#002D62" d="M73.9,48.1c0-0.6-0.1-1.1-0.8-1.1c-0.8,0-0.8,1.1-0.8,2.4c0,2,0.2,2.4,1,2.4c0.2,0,0.5-0.1,0.7-0.1v-1.4 h-0.7v-1h2.1v3.3c-0.4,0.1-1.3,0.2-1.8,0.2c-2.3,0-2.5-0.9-2.5-3.4c0-1.6,0.1-3.3,2.3-3.3c1.3,0,2.2,0.7,2.1,2.1H73.9z"></path> </g> </g> <g id="CEE" display="none"> <g display="inline"> <path fill="#002D62" d="M30.3,40.3c0-1.7,0-3.4,2.2-3.4c1.4,0,1.9,0.8,1.9,2.2h-1.3c0-0.9-0.2-1.2-0.6-1.2c-0.8,0-0.9,0.7-0.9,2.4 s0.1,2.4,0.9,2.4c0.6,0,0.6-0.8,0.6-1.3h1.3c0,1.7-0.7,2.3-2,2.3C30.3,43.7,30.3,42,30.3,40.3z"></path> <path fill="#002D62" d="M38.4,39.7v-2.6h1.4v6.5h-1.4v-2.9h-1.6v2.9h-1.4v-6.5h1.4v2.6H38.4z"></path> <path fill="#002D62" d="M40.9,43.6v-6.5h3.5v1h-2.2v1.6h2v1h-2v1.9h2.3v1H40.9z"></path> <path fill="#002D62" d="M45.4,43.6v-6.5h2.2l1,4.4h0l1.1-4.4h2.1v6.5h-1.3v-5h0l-1.3,5h-1.3l-1.2-5h0v5H45.4z"></path> <path fill="#002D62" d="M52.9,43.6v-6.5h1.4v6.5H52.9z"></path> <path fill="#002D62" d="M55.3,40.3c0-1.7,0-3.4,2.2-3.4c1.4,0,1.9,0.8,1.9,2.2h-1.3c0-0.9-0.2-1.2-0.6-1.2c-0.8,0-0.9,0.7-0.9,2.4 s0.1,2.4,0.9,2.4c0.6,0,0.6-0.8,0.6-1.3h1.3c0,1.7-0.7,2.3-2,2.3C55.3,43.7,55.3,42,55.3,40.3z"></path> <path fill="#002D62" d="M59.9,43.6l1.8-6.5h1.8l1.8,6.5h-1.4l-0.4-1.4h-1.9l-0.4,1.4H59.9z M62.5,38.3L62.5,38.3l-0.6,2.8h1.3 L62.5,38.3z"></path> <path fill="#002D62" d="M65.9,43.6v-6.5h1.4v5.4h2v1.1H65.9z"></path> <path fill="#002D62" d="M23.9,52.6v-6.5h3.5v1h-2.2v1.6h2v1h-2v1.9h2.3v1H23.9z"></path> <path fill="#002D62" d="M28.4,52.6v-6.5h1.8l1.7,4.5h0v-4.5h1.3v6.5h-1.8l-1.8-4.8h0v4.8H28.4z"></path> <path fill="#002D62" d="M37.4,48.1c0-0.6-0.1-1.1-0.8-1.1c-0.8,0-0.8,1.1-0.8,2.4c0,2,0.2,2.4,1,2.4c0.2,0,0.5-0.1,0.7-0.1v-1.4 h-0.7v-1h2.1v3.3c-0.4,0.1-1.3,0.2-1.8,0.2c-2.3,0-2.5-0.9-2.5-3.4c0-1.6,0.1-3.3,2.3-3.3c1.3,0,2.2,0.7,2.1,2.1H37.4z"></path> <path fill="#002D62" d="M39.9,52.6v-6.5h1.4v6.5H39.9z"></path> <path fill="#002D62" d="M42.4,52.6v-6.5h1.8l1.7,4.5h0v-4.5h1.3v6.5h-1.8l-1.8-4.8h0v4.8H42.4z"></path> <path fill="#002D62" d="M48.4,52.6v-6.5h3.5v1h-2.2v1.6h2v1h-2v1.9H52v1H48.4z"></path> <path fill="#002D62" d="M52.9,52.6v-6.5h3.5v1h-2.2v1.6h2v1h-2v1.9h2.3v1H52.9z"></path> <path fill="#002D62" d="M58.7,52.6h-1.4v-6.5h2.5c0.9,0,1.5,0.6,1.5,1.7c0,0.8-0.3,1.4-1.2,1.6v0c0.3,0,1.2,0.1,1.2,1.3 c0,0.4,0,1.6,0.2,1.9h-1.3c-0.2-0.4-0.1-0.8-0.1-1.3c0-0.8,0.1-1.4-1-1.4h-0.4V52.6z M58.7,48.9h0.6c0.5,0,0.7-0.5,0.7-1 c0-0.6-0.3-0.9-0.7-0.9h-0.6V48.9z"></path> <path fill="#002D62" d="M62.4,52.6v-6.5h1.4v6.5H62.4z"></path> <path fill="#002D62" d="M64.9,52.6v-6.5h1.8l1.7,4.5h0v-4.5h1.3v6.5H68l-1.8-4.8h0v4.8H64.9z"></path> <path fill="#002D62" d="M73.9,48.1c0-0.6-0.1-1.1-0.8-1.1c-0.8,0-0.8,1.1-0.8,2.4c0,2,0.2,2.4,1,2.4c0.2,0,0.5-0.1,0.7-0.1v-1.4 h-0.7v-1h2.1v3.3c-0.4,0.1-1.3,0.2-1.8,0.2c-2.3,0-2.5-0.9-2.5-3.4c0-1.6,0.1-3.3,2.3-3.3c1.3,0,2.2,0.7,2.1,2.1H73.9z"></path> </g> </g> <g id="CEE_copy" display="none"> <g display="inline"> <path fill="#002D62" d="M2.6,40.3c0-1.7,0-3.4,2.2-3.4c1.4,0,1.9,0.8,1.9,2.2H5.4c0-0.9-0.2-1.2-0.6-1.2c-0.8,0-0.9,0.7-0.9,2.4 s0.1,2.4,0.9,2.4c0.6,0,0.6-0.8,0.6-1.3h1.3c0,1.7-0.7,2.3-2,2.3C2.6,43.7,2.6,42,2.6,40.3z"></path> <path fill="#002D62" d="M7.7,43.6v-6.5H9v6.5H7.7z"></path> <path fill="#002D62" d="M9.6,37.1h1.4l1,4.7h0l1.1-4.7h1.3l-1.7,6.5h-1.6L9.6,37.1z"></path> <path fill="#002D62" d="M15.2,43.6v-6.5h1.4v6.5H15.2z"></path> <path fill="#002D62" d="M17.7,43.6v-6.5H19v5.4h2v1.1H17.7z"></path> <path fill="#002D62" d="M27.3,43.1c-0.5,0.5-1.1,0.6-1.8,0.6c-1.5,0-2.3-0.7-2.3-2c0-0.9,0.6-1.4,1.3-1.9c-0.3-0.4-0.7-1-0.7-1.6 c0-0.7,0.9-1.3,2-1.3c0.6,0,1.6,0.3,1.6,1.3c0,0.8-0.6,1.3-1.1,1.7l1,1.3c0.1-0.4,0.1-0.7,0.1-1.3h1.1c0,0.7,0,1.5-0.4,2.2l1,1.3 h-1.3L27.3,43.1z M25.2,40.7c-0.3,0.3-0.7,0.6-0.7,1.1c0,0.6,0.4,1,1,1c0.4,0,0.8-0.1,1-0.4L25.2,40.7z M26.1,38.3 c0-0.3-0.2-0.6-0.6-0.6c-0.3,0-0.6,0.2-0.6,0.5c0,0.4,0.2,0.7,0.5,0.9C25.8,39,26.1,38.7,26.1,38.3z"></path> <path fill="#002D62" d="M31.7,43.6v-6.5h3.5v1H33v1.6h2v1h-2v1.9h2.3v1H31.7z"></path> <path fill="#002D62" d="M36.2,43.6v-6.5H38l1.7,4.5h0v-4.5H41v6.5h-1.8l-1.8-4.8h0v4.8H36.2z"></path> <path fill="#002D62" d="M41.6,37.1h1.4l1,4.7h0l1.1-4.7h1.3l-1.7,6.5h-1.6L41.6,37.1z"></path> <path fill="#002D62" d="M47.2,43.6v-6.5h1.4v6.5H47.2z"></path> <path fill="#002D62" d="M51,43.6h-1.4v-6.5h2.5c0.9,0,1.5,0.6,1.5,1.7c0,0.8-0.3,1.4-1.2,1.6v0c0.3,0,1.2,0.1,1.2,1.3 c0,0.4,0,1.6,0.2,1.9h-1.3c-0.2-0.4-0.1-0.8-0.1-1.3c0-0.8,0.1-1.4-1-1.4H51V43.6z M51,39.9h0.6c0.5,0,0.7-0.5,0.7-1 c0-0.6-0.3-0.9-0.7-0.9H51V39.9z"></path> <path fill="#002D62" d="M54.6,40.3c0-1.7,0-3.4,2.2-3.4s2.2,1.6,2.2,3.4c0,1.7,0,3.4-2.2,3.4S54.6,42,54.6,40.3z M57.7,40.3 c0-1.7-0.1-2.4-0.9-2.4c-0.8,0-0.9,0.7-0.9,2.4s0.1,2.4,0.9,2.4C57.6,42.7,57.7,42,57.7,40.3z"></path> <path fill="#002D62" d="M60.2,43.6v-6.5H62l1.7,4.5h0v-4.5H65v6.5h-1.8l-1.8-4.8h0v4.8H60.2z"></path> <path fill="#002D62" d="M66.2,43.6v-6.5h2.2l1,4.4h0l1.1-4.4h2.1v6.5h-1.3v-5h0l-1.3,5h-1.3l-1.2-5h0v5H66.2z"></path> <path fill="#002D62" d="M73.7,43.6v-6.5h3.5v1H75v1.6h2v1h-2v1.9h2.3v1H73.7z"></path> <path fill="#002D62" d="M78.2,43.6v-6.5H80l1.7,4.5h0v-4.5H83v6.5h-1.8l-1.8-4.8h0v4.8H78.2z"></path> <path fill="#002D62" d="M88,37.1v1.1h-1.5v5.4h-1.4v-5.4h-1.5v-1.1H88z"></path> <path fill="#002D62" d="M87.6,43.6l1.8-6.5h1.8l1.8,6.5h-1.4l-0.4-1.4h-1.9L89,43.6H87.6z M90.3,38.3L90.3,38.3l-0.6,2.8h1.3 L90.3,38.3z"></path> <path fill="#002D62" d="M93.6,43.6v-6.5H95v5.4h2v1.1H93.6z"></path> <path fill="#002D62" d="M23.9,52.6v-6.5h3.5v1h-2.2v1.6h2v1h-2v1.9h2.3v1H23.9z"></path> <path fill="#002D62" d="M28.4,52.6v-6.5h1.8l1.7,4.5h0v-4.5h1.3v6.5h-1.8l-1.8-4.8h0v4.8H28.4z"></path> <path fill="#002D62" d="M37.4,48.1c0-0.6-0.1-1.1-0.8-1.1c-0.8,0-0.8,1.1-0.8,2.4c0,2,0.2,2.4,1,2.4c0.2,0,0.5-0.1,0.7-0.1v-1.4 h-0.7v-1h2.1v3.3c-0.4,0.1-1.3,0.2-1.8,0.2c-2.3,0-2.5-0.9-2.5-3.4c0-1.6,0.1-3.3,2.3-3.3c1.3,0,2.2,0.7,2.1,2.1H37.4z"></path> <path fill="#002D62" d="M39.9,52.6v-6.5h1.4v6.5H39.9z"></path> <path fill="#002D62" d="M42.4,52.6v-6.5h1.8l1.7,4.5h0v-4.5h1.3v6.5h-1.8l-1.8-4.8h0v4.8H42.4z"></path> <path fill="#002D62" d="M48.4,52.6v-6.5h3.5v1h-2.2v1.6h2v1h-2v1.9H52v1H48.4z"></path> <path fill="#002D62" d="M52.9,52.6v-6.5h3.5v1h-2.2v1.6h2v1h-2v1.9h2.3v1H52.9z"></path> <path fill="#002D62" d="M58.7,52.6h-1.4v-6.5h2.5c0.9,0,1.5,0.6,1.5,1.7c0,0.8-0.3,1.4-1.2,1.6v0c0.3,0,1.2,0.1,1.2,1.3 c0,0.4,0,1.6,0.2,1.9h-1.3c-0.2-0.4-0.1-0.8-0.1-1.3c0-0.8,0.1-1.4-1-1.4h-0.4V52.6z M58.7,48.9h0.6c0.5,0,0.7-0.5,0.7-1 c0-0.6-0.3-0.9-0.7-0.9h-0.6V48.9z"></path> <path fill="#002D62" d="M62.4,52.6v-6.5h1.4v6.5H62.4z"></path> <path fill="#002D62" d="M64.9,52.6v-6.5h1.8l1.7,4.5h0v-4.5h1.3v6.5H68l-1.8-4.8h0v4.8H64.9z"></path> <path fill="#002D62" d="M73.9,48.1c0-0.6-0.1-1.1-0.8-1.1c-0.8,0-0.8,1.1-0.8,2.4c0,2,0.2,2.4,1,2.4c0.2,0,0.5-0.1,0.7-0.1v-1.4 h-0.7v-1h2.1v3.3c-0.4,0.1-1.3,0.2-1.8,0.2c-2.3,0-2.5-0.9-2.5-3.4c0-1.6,0.1-3.3,2.3-3.3c1.3,0,2.2,0.7,2.1,2.1H73.9z"></path> </g> </g> <g id="EECS" display="none"> <g display="inline"> <path fill="#002D62" d="M-4.4,43.6v-6.5h3.5v1H-3v1.6h2v1h-2v1.9h2.3v1H-4.4z"></path> <path fill="#002D62" d="M0.1,43.6v-6.5h1.4v5.4h2v1.1H0.1z"></path> <path fill="#002D62" d="M4.1,43.6v-6.5h3.5v1H5.5v1.6h2v1h-2v1.9h2.3v1H4.1z"></path> <path fill="#002D62" d="M8.6,40.3c0-1.7,0-3.4,2.2-3.4c1.4,0,1.9,0.8,1.9,2.2h-1.3c0-0.9-0.2-1.2-0.6-1.2c-0.8,0-0.9,0.7-0.9,2.4 s0.1,2.4,0.9,2.4c0.6,0,0.6-0.8,0.6-1.3h1.3c0,1.7-0.7,2.3-2,2.3C8.6,43.7,8.6,42,8.6,40.3z"></path> <path fill="#002D62" d="M17.5,37.1v1.1H16v5.4h-1.4v-5.4h-1.5v-1.1H17.5z"></path> <path fill="#002D62" d="M19.5,43.6h-1.4v-6.5h2.5c0.9,0,1.5,0.6,1.5,1.7c0,0.8-0.3,1.4-1.2,1.6v0c0.3,0,1.2,0.1,1.2,1.3 c0,0.4,0,1.6,0.2,1.9h-1.3c-0.2-0.4-0.1-0.8-0.1-1.3c0-0.8,0.1-1.4-1-1.4h-0.4V43.6z M19.5,39.9h0.6c0.5,0,0.7-0.5,0.7-1 c0-0.6-0.3-0.9-0.7-0.9h-0.6V39.9z"></path> <path fill="#002D62" d="M23.1,43.6v-6.5h1.4v6.5H23.1z"></path> <path fill="#002D62" d="M25.6,40.3c0-1.7,0-3.4,2.2-3.4c1.4,0,1.9,0.8,1.9,2.2h-1.3c0-0.9-0.2-1.2-0.6-1.2c-0.8,0-0.9,0.7-0.9,2.4 s0.1,2.4,0.9,2.4c0.6,0,0.6-0.8,0.6-1.3h1.3c0,1.7-0.7,2.3-2,2.3C25.6,43.7,25.6,42,25.6,40.3z"></path> <path fill="#002D62" d="M30.2,43.6l1.8-6.5h1.8l1.8,6.5h-1.4l-0.4-1.4h-1.9l-0.4,1.4H30.2z M32.8,38.3L32.8,38.3l-0.6,2.8h1.3 L32.8,38.3z"></path> <path fill="#002D62" d="M36.2,43.6v-6.5h1.4v5.4h2v1.1H36.2z"></path> <path fill="#002D62" d="M42.1,43.6v-6.5h3.5v1h-2.2v1.6h2v1h-2v1.9h2.3v1H42.1z"></path> <path fill="#002D62" d="M46.6,43.6v-6.5h1.8l1.7,4.5h0v-4.5h1.3v6.5h-1.8l-1.8-4.8h0v4.8H46.6z"></path> <path fill="#002D62" d="M55.6,39.1c0-0.6-0.1-1.1-0.8-1.1c-0.8,0-0.8,1.1-0.8,2.4c0,2,0.2,2.4,1,2.4c0.2,0,0.5-0.1,0.7-0.1v-1.4 h-0.7v-1H57v3.3c-0.4,0.1-1.3,0.2-1.8,0.2c-2.3,0-2.5-0.9-2.5-3.4c0-1.6,0.1-3.3,2.3-3.3c1.3,0,2.2,0.7,2.1,2.1H55.6z"></path> <path fill="#002D62" d="M58.1,43.6v-6.5h1.4v6.5H58.1z"></path> <path fill="#002D62" d="M60.7,43.6v-6.5h1.8l1.7,4.5h0v-4.5h1.3v6.5h-1.8l-1.8-4.8h0v4.8H60.7z"></path> <path fill="#002D62" d="M66.6,43.6v-6.5h3.5v1H68v1.6h2v1h-2v1.9h2.3v1H66.6z"></path> <path fill="#002D62" d="M71.1,43.6v-6.5h3.5v1h-2.2v1.6h2v1h-2v1.9h2.3v1H71.1z"></path> <path fill="#002D62" d="M77,43.6h-1.4v-6.5h2.5c0.9,0,1.5,0.6,1.5,1.7c0,0.8-0.3,1.4-1.2,1.6v0c0.3,0,1.2,0.1,1.2,1.3 c0,0.4,0,1.6,0.2,1.9h-1.3c-0.2-0.4-0.1-0.8-0.1-1.3c0-0.8,0.1-1.4-1-1.4H77V43.6z M77,39.9h0.6c0.5,0,0.7-0.5,0.7-1 c0-0.6-0.3-0.9-0.7-0.9H77V39.9z"></path> <path fill="#002D62" d="M80.7,43.6v-6.5H82v6.5H80.7z"></path> <path fill="#002D62" d="M83.2,43.6v-6.5H85l1.7,4.5h0v-4.5H88v6.5h-1.8l-1.8-4.8h0v4.8H83.2z"></path> <path fill="#002D62" d="M92.1,39.1c0-0.6-0.1-1.1-0.8-1.1c-0.8,0-0.8,1.1-0.8,2.4c0,2,0.2,2.4,1,2.4c0.2,0,0.5-0.1,0.7-0.1v-1.4 h-0.7v-1h2.1v3.3c-0.4,0.1-1.3,0.2-1.8,0.2c-2.3,0-2.5-0.9-2.5-3.4c0-1.6,0.1-3.3,2.3-3.3c1.3,0,2.2,0.7,2.1,2.1H92.1z"></path> <path fill="#002D62" d="M100.3,43.1c-0.5,0.5-1.1,0.6-1.8,0.6c-1.5,0-2.3-0.7-2.3-2c0-0.9,0.6-1.4,1.3-1.9c-0.3-0.4-0.7-1-0.7-1.6 c0-0.7,0.9-1.3,2-1.3c0.6,0,1.6,0.3,1.6,1.3c0,0.8-0.6,1.3-1.1,1.7l1,1.3c0.1-0.4,0.1-0.7,0.1-1.3h1.1c0,0.7,0,1.5-0.4,2.2l1,1.3 h-1.3L100.3,43.1z M98.2,40.7c-0.3,0.3-0.7,0.6-0.7,1.1c0,0.6,0.4,1,1,1c0.4,0,0.8-0.1,1-0.4L98.2,40.7z M99.1,38.3 c0-0.3-0.2-0.6-0.6-0.6c-0.3,0-0.6,0.2-0.6,0.5c0,0.4,0.2,0.7,0.5,0.9C98.8,39,99.1,38.7,99.1,38.3z"></path> <path fill="#002D62" d="M11.6,49.3c0-1.7,0-3.4,2.2-3.4c1.4,0,1.9,0.8,1.9,2.2h-1.3c0-0.9-0.2-1.2-0.6-1.2c-0.8,0-0.9,0.7-0.9,2.4 s0.1,2.4,0.9,2.4c0.6,0,0.6-0.8,0.6-1.3h1.3c0,1.7-0.7,2.3-2,2.3C11.6,52.7,11.6,51,11.6,49.3z"></path> <path fill="#002D62" d="M16.6,49.3c0-1.7,0-3.4,2.2-3.4c2.2,0,2.2,1.6,2.2,3.4c0,1.7,0,3.4-2.2,3.4C16.6,52.7,16.6,51,16.6,49.3z M19.7,49.3c0-1.7-0.1-2.4-0.9-2.4c-0.8,0-0.9,0.7-0.9,2.4s0.1,2.4,0.9,2.4C19.6,51.7,19.7,51,19.7,49.3z"></path> <path fill="#002D62" d="M22.1,52.6v-6.5h2.2l1,4.4h0l1.1-4.4h2.1v6.5h-1.3v-5h0l-1.3,5h-1.3l-1.2-5h0v5H22.1z"></path> <path fill="#002D62" d="M29.6,46.1h2.4c1.2,0,1.7,0.8,1.7,1.9c0,0.7-0.2,1.9-1.8,1.9h-1v2.6h-1.4V46.1z M31,48.9h0.8 c0.4,0,0.7-0.4,0.7-0.9c0-0.5-0.1-1-0.8-1H31V48.9z"></path> <path fill="#002D62" d="M39,46.1v4.6c0,1-0.5,2-2.2,2c-1.5,0-2.2-0.8-2.2-2v-4.6H36v4.5c0,0.8,0.3,1.1,0.8,1.1 c0.6,0,0.9-0.4,0.9-1.1v-4.5H39z"></path> <path fill="#002D62" d="M44,46.1v1.1h-1.5v5.4h-1.4v-5.4h-1.5v-1.1H44z"></path> <path fill="#002D62" d="M44.6,52.6v-6.5h3.5v1H46v1.6h2v1h-2v1.9h2.3v1H44.6z"></path> <path fill="#002D62" d="M50.5,52.6h-1.4v-6.5h2.5c0.9,0,1.5,0.6,1.5,1.7c0,0.8-0.3,1.4-1.2,1.6v0c0.3,0,1.2,0.1,1.2,1.3 c0,0.4,0,1.6,0.2,1.9h-1.3c-0.2-0.4-0.1-0.8-0.1-1.3c0-0.8,0.1-1.4-1-1.4h-0.4V52.6z M50.5,48.9h0.6c0.5,0,0.7-0.5,0.7-1 c0-0.6-0.3-0.9-0.7-0.9h-0.6V48.9z"></path> <path fill="#002D62" d="M57.9,52.7c-1.7,0-2-1-1.9-2.1h1.4c0,0.6,0,1.1,0.8,1.1c0.5,0,0.7-0.3,0.7-0.7c0-1.2-2.7-1.2-2.7-3.2 c0-1,0.5-1.8,2.1-1.8c1.3,0,2,0.6,1.9,2h-1.3c0-0.5-0.1-1-0.6-1c-0.4,0-0.7,0.2-0.7,0.7c0,1.2,2.7,1.1,2.7,3.2 C60.2,52.5,58.9,52.7,57.9,52.7z"></path> <path fill="#002D62" d="M61.1,49.3c0-1.7,0-3.4,2.2-3.4c1.4,0,1.9,0.8,1.9,2.2h-1.3c0-0.9-0.2-1.2-0.6-1.2c-0.8,0-0.9,0.7-0.9,2.4 s0.1,2.4,0.9,2.4c0.6,0,0.6-0.8,0.6-1.3h1.3c0,1.7-0.7,2.3-2,2.3C61.1,52.7,61.1,51,61.1,49.3z"></path> <path fill="#002D62" d="M66.1,52.6v-6.5h1.4v6.5H66.1z"></path> <path fill="#002D62" d="M68.7,52.6v-6.5h3.5v1H70v1.6h2v1h-2v1.9h2.3v1H68.7z"></path> <path fill="#002D62" d="M73.2,52.6v-6.5H75l1.7,4.5h0v-4.5H78v6.5h-1.8l-1.8-4.8h0v4.8H73.2z"></path> <path fill="#002D62" d="M79.1,49.3c0-1.7,0-3.4,2.2-3.4c1.4,0,1.9,0.8,1.9,2.2h-1.3c0-0.9-0.2-1.2-0.6-1.2c-0.8,0-0.9,0.7-0.9,2.4 s0.1,2.4,0.9,2.4c0.6,0,0.6-0.8,0.6-1.3h1.3c0,1.7-0.7,2.3-2,2.3C79.1,52.7,79.1,51,79.1,49.3z"></path> <path fill="#002D62" d="M84.2,52.6v-6.5h3.5v1h-2.2v1.6h2v1h-2v1.9h2.3v1H84.2z"></path> </g> </g> <g id="IOE" display="none"> <g display="inline"> <path fill="#002D62" d="M-2.1,43.6v-6.5h1.4v6.5H-2.1z"></path> <path fill="#002D62" d="M0.4,43.6v-6.5h1.8L4,41.6h0v-4.5h1.3v6.5H3.5l-1.8-4.8h0v4.8H0.4z"></path> <path fill="#002D62" d="M6.4,37.1h2.3c1.8,0,2.1,1.2,2.1,3.2c0,1,0.2,3.3-2.2,3.3H6.4V37.1z M7.8,42.6h0.7c0.8,0,1-0.6,1-2.3 c0-1.2,0-2.3-0.9-2.3H7.8V42.6z"></path> <path fill="#002D62" d="M16.3,37.1v4.6c0,1-0.5,2-2.2,2c-1.5,0-2.2-0.8-2.2-2v-4.6h1.4v4.5c0,0.8,0.3,1.1,0.8,1.1 c0.6,0,0.9-0.4,0.9-1.1v-4.5H16.3z"></path> <path fill="#002D62" d="M19.2,43.7c-1.7,0-2-1-1.9-2.1h1.4c0,0.6,0,1.1,0.8,1.1c0.5,0,0.7-0.3,0.7-0.7c0-1.2-2.7-1.2-2.7-3.2 c0-1,0.5-1.8,2.1-1.8c1.3,0,2,0.6,1.9,2H20c0-0.5-0.1-1-0.6-1c-0.4,0-0.7,0.2-0.7,0.7c0,1.2,2.7,1.1,2.7,3.2 C21.4,43.5,20.2,43.7,19.2,43.7z"></path> <path fill="#002D62" d="M26.3,37.1v1.1h-1.5v5.4h-1.4v-5.4h-1.5v-1.1H26.3z"></path> <path fill="#002D62" d="M28.2,43.6h-1.4v-6.5h2.5c0.9,0,1.5,0.6,1.5,1.7c0,0.8-0.3,1.4-1.2,1.6v0c0.3,0,1.2,0.1,1.2,1.3 c0,0.4,0,1.6,0.2,1.9h-1.3c-0.2-0.4-0.1-0.8-0.1-1.3c0-0.8,0.1-1.4-1-1.4h-0.4V43.6z M28.2,39.9h0.6c0.5,0,0.7-0.5,0.7-1 c0-0.6-0.3-0.9-0.7-0.9h-0.6V39.9z"></path> <path fill="#002D62" d="M31.9,43.6v-6.5h1.4v6.5H31.9z"></path> <path fill="#002D62" d="M33.9,43.6l1.8-6.5h1.8l1.8,6.5h-1.4l-0.4-1.4h-1.9l-0.4,1.4H33.9z M36.5,38.3L36.5,38.3l-0.6,2.8h1.3 L36.5,38.3z"></path> <path fill="#002D62" d="M39.9,43.6v-6.5h1.4v5.4h2v1.1H39.9z"></path> <path fill="#002D62" d="M49.6,43.1c-0.5,0.5-1.1,0.6-1.8,0.6c-1.5,0-2.3-0.7-2.3-2c0-0.9,0.6-1.4,1.3-1.9c-0.3-0.4-0.7-1-0.7-1.6 c0-0.7,0.9-1.3,2-1.3c0.6,0,1.6,0.3,1.6,1.3c0,0.8-0.6,1.3-1.1,1.7l1,1.3c0.1-0.4,0.1-0.7,0.1-1.3h1.1c0,0.7,0,1.5-0.4,2.2l1,1.3 H50L49.6,43.1z M47.5,40.7c-0.3,0.3-0.7,0.6-0.7,1.1c0,0.6,0.4,1,1,1c0.4,0,0.8-0.1,1-0.4L47.5,40.7z M48.4,38.3 c0-0.3-0.2-0.6-0.6-0.6c-0.3,0-0.6,0.2-0.6,0.5c0,0.4,0.2,0.7,0.5,0.9C48,39,48.4,38.7,48.4,38.3z"></path> <path fill="#002D62" d="M53.8,40.3c0-1.7,0-3.4,2.2-3.4c2.2,0,2.2,1.6,2.2,3.4c0,1.7,0,3.4-2.2,3.4C53.8,43.7,53.8,42,53.8,40.3z M57,40.3c0-1.7-0.1-2.4-0.9-2.4c-0.8,0-0.9,0.7-0.9,2.4s0.1,2.4,0.9,2.4C56.9,42.7,57,42,57,40.3z"></path> <path fill="#002D62" d="M59.4,37.1h2.4c1.2,0,1.7,0.8,1.7,1.9c0,0.7-0.2,1.9-1.8,1.9h-1v2.6h-1.4V37.1z M60.8,39.9h0.8 c0.4,0,0.7-0.4,0.7-0.9c0-0.5-0.1-1-0.8-1h-0.7V39.9z"></path> <path fill="#002D62" d="M64.4,43.6v-6.5H68v1h-2.2v1.6h2v1h-2v1.9H68v1H64.4z"></path> <path fill="#002D62" d="M70.2,43.6h-1.4v-6.5h2.5c0.9,0,1.5,0.6,1.5,1.7c0,0.8-0.3,1.4-1.2,1.6v0c0.3,0,1.2,0.1,1.2,1.3 c0,0.4,0,1.6,0.2,1.9h-1.3c-0.2-0.4-0.1-0.8-0.1-1.3c0-0.8,0.1-1.4-1-1.4h-0.4V43.6z M70.2,39.9h0.6c0.5,0,0.7-0.5,0.7-1 c0-0.6-0.3-0.9-0.7-0.9h-0.6V39.9z"></path> <path fill="#002D62" d="M73.4,43.6l1.8-6.5H77l1.8,6.5h-1.4L77,42.1h-1.9l-0.4,1.4H73.4z M76,38.3L76,38.3l-0.6,2.8h1.3L76,38.3z"></path> <path fill="#002D62" d="M82.8,37.1v1.1h-1.5v5.4h-1.4v-5.4h-1.5v-1.1H82.8z"></path> <path fill="#002D62" d="M83.4,43.6v-6.5h1.4v6.5H83.4z"></path> <path fill="#002D62" d="M85.8,40.3c0-1.7,0-3.4,2.2-3.4s2.2,1.6,2.2,3.4c0,1.7,0,3.4-2.2,3.4S85.8,42,85.8,40.3z M88.9,40.3 c0-1.7-0.1-2.4-0.9-2.4c-0.8,0-0.9,0.7-0.9,2.4s0.1,2.4,0.9,2.4C88.8,42.7,88.9,42,88.9,40.3z"></path> <path fill="#002D62" d="M91.4,43.6v-6.5h1.8l1.7,4.5h0v-4.5h1.3v6.5h-1.8l-1.8-4.8h0v4.8H91.4z"></path> <path fill="#002D62" d="M99.1,43.7c-1.7,0-2-1-1.9-2.1h1.4c0,0.6,0,1.1,0.8,1.1c0.5,0,0.7-0.3,0.7-0.7c0-1.2-2.7-1.2-2.7-3.2 c0-1,0.5-1.8,2.1-1.8c1.3,0,2,0.6,1.9,2H100c0-0.5-0.1-1-0.6-1c-0.4,0-0.7,0.2-0.7,0.7c0,1.2,2.7,1.1,2.7,3.2 C101.4,43.5,100.2,43.7,99.1,43.7z"></path> <path fill="#002D62" d="M23.9,52.6v-6.5h3.5v1h-2.2v1.6h2v1h-2v1.9h2.3v1H23.9z"></path> <path fill="#002D62" d="M28.4,52.6v-6.5h1.8l1.7,4.5h0v-4.5h1.3v6.5h-1.8l-1.8-4.8h0v4.8H28.4z"></path> <path fill="#002D62" d="M37.4,48.1c0-0.6-0.1-1.1-0.8-1.1c-0.8,0-0.8,1.1-0.8,2.4c0,2,0.2,2.4,1,2.4c0.2,0,0.5-0.1,0.7-0.1v-1.4 h-0.7v-1h2.1v3.3c-0.4,0.1-1.3,0.2-1.8,0.2c-2.3,0-2.5-0.9-2.5-3.4c0-1.6,0.1-3.3,2.3-3.3c1.3,0,2.2,0.7,2.1,2.1H37.4z"></path> <path fill="#002D62" d="M39.9,52.6v-6.5h1.4v6.5H39.9z"></path> <path fill="#002D62" d="M42.4,52.6v-6.5h1.8l1.7,4.5h0v-4.5h1.3v6.5h-1.8l-1.8-4.8h0v4.8H42.4z"></path> <path fill="#002D62" d="M48.4,52.6v-6.5h3.5v1h-2.2v1.6h2v1h-2v1.9H52v1H48.4z"></path> <path fill="#002D62" d="M52.9,52.6v-6.5h3.5v1h-2.2v1.6h2v1h-2v1.9h2.3v1H52.9z"></path> <path fill="#002D62" d="M58.7,52.6h-1.4v-6.5h2.5c0.9,0,1.5,0.6,1.5,1.7c0,0.8-0.3,1.4-1.2,1.6v0c0.3,0,1.2,0.1,1.2,1.3 c0,0.4,0,1.6,0.2,1.9h-1.3c-0.2-0.4-0.1-0.8-0.1-1.3c0-0.8,0.1-1.4-1-1.4h-0.4V52.6z M58.7,48.9h0.6c0.5,0,0.7-0.5,0.7-1 c0-0.6-0.3-0.9-0.7-0.9h-0.6V48.9z"></path> <path fill="#002D62" d="M62.4,52.6v-6.5h1.4v6.5H62.4z"></path> <path fill="#002D62" d="M64.9,52.6v-6.5h1.8l1.7,4.5h0v-4.5h1.3v6.5H68l-1.8-4.8h0v4.8H64.9z"></path> <path fill="#002D62" d="M73.9,48.1c0-0.6-0.1-1.1-0.8-1.1c-0.8,0-0.8,1.1-0.8,2.4c0,2,0.2,2.4,1,2.4c0.2,0,0.5-0.1,0.7-0.1v-1.4 h-0.7v-1h2.1v3.3c-0.4,0.1-1.3,0.2-1.8,0.2c-2.3,0-2.5-0.9-2.5-3.4c0-1.6,0.1-3.3,2.3-3.3c1.3,0,2.2,0.7,2.1,2.1H73.9z"></path> </g> </g> <g id="ISD" display="none"> <g display="inline"> <path fill="#002D62" d="M5.2,43.6v-6.5h1.4v6.5H5.2z"></path> <path fill="#002D62" d="M7.7,43.6v-6.5h1.8l1.7,4.5h0v-4.5h1.3v6.5h-1.8L9,38.8h0v4.8H7.7z"></path> <path fill="#002D62" d="M17.5,37.1v1.1H16v5.4h-1.4v-5.4h-1.5v-1.1H17.5z"></path> <path fill="#002D62" d="M18.2,43.6v-6.5h3.5v1h-2.2v1.6h2v1h-2v1.9h2.3v1H18.2z"></path> <path fill="#002D62" d="M25.6,39.1c0-0.6-0.1-1.1-0.8-1.1c-0.8,0-0.8,1.1-0.8,2.4c0,2,0.2,2.4,1,2.4c0.2,0,0.5-0.1,0.7-0.1v-1.4 h-0.7v-1H27v3.3c-0.4,0.1-1.3,0.2-1.8,0.2c-2.3,0-2.5-0.9-2.5-3.4c0-1.6,0.1-3.3,2.3-3.3c1.3,0,2.2,0.7,2.1,2.1H25.6z"></path> <path fill="#002D62" d="M29.5,43.6h-1.4v-6.5h2.5c0.9,0,1.5,0.6,1.5,1.7c0,0.8-0.3,1.4-1.2,1.6v0c0.3,0,1.2,0.1,1.2,1.3 c0,0.4,0,1.6,0.2,1.9H31c-0.2-0.4-0.1-0.8-0.1-1.3c0-0.8,0.1-1.4-1-1.4h-0.4V43.6z M29.5,39.9h0.6c0.5,0,0.7-0.5,0.7-1 c0-0.6-0.3-0.9-0.7-0.9h-0.6V39.9z"></path> <path fill="#002D62" d="M32.7,43.6l1.8-6.5h1.8l1.8,6.5h-1.4l-0.4-1.4h-1.9L34,43.6H32.7z M35.3,38.3L35.3,38.3l-0.6,2.8h1.3 L35.3,38.3z"></path> <path fill="#002D62" d="M42,37.1v1.1h-1.5v5.4h-1.4v-5.4h-1.5v-1.1H42z"></path> <path fill="#002D62" d="M42.6,43.6v-6.5H44v6.5H42.6z"></path> <path fill="#002D62" d="M44.6,37.1H46l1,4.7h0l1.1-4.7h1.3l-1.7,6.5h-1.6L44.6,37.1z"></path> <path fill="#002D62" d="M50.1,43.6v-6.5h3.5v1h-2.2v1.6h2v1h-2v1.9h2.3v1H50.1z"></path> <path fill="#002D62" d="M58.4,43.7c-1.7,0-2-1-1.9-2.1h1.4c0,0.6,0,1.1,0.8,1.1c0.5,0,0.7-0.3,0.7-0.7c0-1.2-2.7-1.2-2.7-3.2 c0-1,0.5-1.8,2.1-1.8c1.3,0,2,0.6,1.9,2h-1.3c0-0.5-0.1-1-0.6-1c-0.4,0-0.7,0.2-0.7,0.7c0,1.2,2.7,1.1,2.7,3.2 C60.7,43.5,59.4,43.7,58.4,43.7z"></path> <path fill="#002D62" d="M62.8,41.3l-1.7-4.2h1.5l1,2.7l1-2.7H66l-1.8,4.2v2.3h-1.4V41.3z"></path> <path fill="#002D62" d="M68.4,43.7c-1.7,0-2-1-1.9-2.1h1.4c0,0.6,0,1.1,0.8,1.1c0.5,0,0.7-0.3,0.7-0.7c0-1.2-2.7-1.2-2.7-3.2 c0-1,0.5-1.8,2.1-1.8c1.3,0,2,0.6,1.9,2h-1.3c0-0.5-0.1-1-0.6-1c-0.4,0-0.7,0.2-0.7,0.7c0,1.2,2.7,1.1,2.7,3.2 C70.7,43.5,69.4,43.7,68.4,43.7z"></path> <path fill="#002D62" d="M75.5,37.1v1.1H74v5.4h-1.4v-5.4h-1.5v-1.1H75.5z"></path> <path fill="#002D62" d="M76.1,43.6v-6.5h3.5v1h-2.2v1.6h2v1h-2v1.9h2.3v1H76.1z"></path> <path fill="#002D62" d="M80.6,43.6v-6.5h2.2l1,4.4h0l1.1-4.4H87v6.5h-1.3v-5h0l-1.3,5h-1.3l-1.2-5h0v5H80.6z"></path> <path fill="#002D62" d="M89.9,43.7c-1.7,0-2-1-1.9-2.1h1.4c0,0.6,0,1.1,0.8,1.1c0.5,0,0.7-0.3,0.7-0.7c0-1.2-2.7-1.2-2.7-3.2 c0-1,0.5-1.8,2.1-1.8c1.3,0,2,0.6,1.9,2h-1.3c0-0.5-0.1-1-0.6-1c-0.4,0-0.7,0.2-0.7,0.7c0,1.2,2.7,1.1,2.7,3.2 C92.2,43.5,90.9,43.7,89.9,43.7z"></path> <path fill="#002D62" d="M35.3,52.1c-0.5,0.5-1.1,0.6-1.8,0.6c-1.5,0-2.3-0.7-2.3-2c0-0.9,0.6-1.4,1.3-1.9c-0.3-0.4-0.7-1-0.7-1.6 c0-0.7,0.9-1.3,2-1.3c0.6,0,1.6,0.3,1.6,1.3c0,0.8-0.6,1.3-1.1,1.7l1,1.3c0.1-0.4,0.1-0.7,0.1-1.3h1.1c0,0.7,0,1.5-0.4,2.2l1,1.3 h-1.3L35.3,52.1z M33.2,49.7c-0.3,0.3-0.7,0.6-0.7,1.1c0,0.6,0.4,1,1,1c0.4,0,0.8-0.1,1-0.4L33.2,49.7z M34.1,47.3 c0-0.3-0.2-0.6-0.6-0.6c-0.3,0-0.6,0.2-0.6,0.5c0,0.4,0.2,0.7,0.5,0.9C33.8,48,34.1,47.7,34.1,47.3z"></path> <path fill="#002D62" d="M39.7,46.1h2.3c1.8,0,2.1,1.2,2.1,3.2c0,1,0.2,3.3-2.2,3.3h-2.2V46.1z M41,51.6h0.7c0.8,0,1-0.6,1-2.3 c0-1.2,0-2.3-0.9-2.3H41V51.6z"></path> <path fill="#002D62" d="M45.1,52.6v-6.5h3.5v1h-2.2v1.6h2v1h-2v1.9h2.3v1H45.1z"></path> <path fill="#002D62" d="M51.4,52.7c-1.7,0-2-1-1.9-2.1h1.4c0,0.6,0,1.1,0.8,1.1c0.5,0,0.7-0.3,0.7-0.7c0-1.2-2.7-1.2-2.7-3.2 c0-1,0.5-1.8,2.1-1.8c1.3,0,2,0.6,1.9,2h-1.3c0-0.5-0.1-1-0.6-1c-0.4,0-0.7,0.2-0.7,0.7c0,1.2,2.7,1.1,2.7,3.2 C53.7,52.5,52.4,52.7,51.4,52.7z"></path> <path fill="#002D62" d="M54.6,52.6v-6.5H56v6.5H54.6z"></path> <path fill="#002D62" d="M60.1,48.1c0-0.6-0.1-1.1-0.8-1.1c-0.8,0-0.8,1.1-0.8,2.4c0,2,0.2,2.4,1,2.4c0.2,0,0.5-0.1,0.7-0.1v-1.4 h-0.7v-1h2.1v3.3c-0.4,0.1-1.3,0.2-1.8,0.2c-2.3,0-2.5-0.9-2.5-3.4c0-1.6,0.1-3.3,2.3-3.3c1.3,0,2.2,0.7,2.1,2.1H60.1z"></path> <path fill="#002D62" d="M62.7,52.6v-6.5h1.8l1.7,4.5h0v-4.5h1.3v6.5h-1.8l-1.8-4.8h0v4.8H62.7z"></path> </g> </g> <g id="MSE" display="none"> <g display="inline"> <path fill="#002D62" d="M10.1,43.6v-6.5h2.2l1,4.4h0l1.1-4.4h2.1v6.5h-1.3v-5h0l-1.3,5h-1.3l-1.2-5h0v5H10.1z"></path> <path fill="#002D62" d="M17.2,43.6l1.8-6.5h1.8l1.8,6.5h-1.4l-0.4-1.4h-1.9l-0.4,1.4H17.2z M19.8,38.3L19.8,38.3l-0.6,2.8h1.3 L19.8,38.3z"></path> <path fill="#002D62" d="M26.5,37.1v1.1H25v5.4h-1.4v-5.4h-1.5v-1.1H26.5z"></path> <path fill="#002D62" d="M27.1,43.6v-6.5h3.5v1h-2.2v1.6h2v1h-2v1.9h2.3v1H27.1z"></path> <path fill="#002D62" d="M32.9,43.6h-1.4v-6.5h2.5c0.9,0,1.5,0.6,1.5,1.7c0,0.8-0.3,1.4-1.2,1.6v0c0.3,0,1.2,0.1,1.2,1.3 c0,0.4,0,1.6,0.2,1.9h-1.3c-0.2-0.4-0.1-0.8-0.1-1.3c0-0.8,0.1-1.4-1-1.4h-0.4V43.6z M32.9,39.9h0.6c0.5,0,0.7-0.5,0.7-1 c0-0.6-0.3-0.9-0.7-0.9h-0.6V39.9z"></path> <path fill="#002D62" d="M36.6,43.6v-6.5H38v6.5H36.6z"></path> <path fill="#002D62" d="M38.6,43.6l1.8-6.5h1.8l1.8,6.5h-1.4l-0.4-1.4h-1.9L40,43.6H38.6z M41.2,38.3L41.2,38.3l-0.6,2.8h1.3 L41.2,38.3z"></path> <path fill="#002D62" d="M44.6,43.6v-6.5H46v5.4h2v1.1H44.6z"></path> <path fill="#002D62" d="M50.4,43.7c-1.7,0-2-1-1.9-2.1h1.4c0,0.6,0,1.1,0.8,1.1c0.5,0,0.7-0.3,0.7-0.7c0-1.2-2.7-1.2-2.7-3.2 c0-1,0.5-1.8,2.1-1.8c1.3,0,2,0.6,1.9,2h-1.3c0-0.5-0.1-1-0.6-1c-0.4,0-0.7,0.2-0.7,0.7c0,1.2,2.7,1.1,2.7,3.2 C52.7,43.5,51.4,43.7,50.4,43.7z"></path> <path fill="#002D62" d="M57.4,43.7c-1.7,0-2-1-1.9-2.1h1.4c0,0.6,0,1.1,0.8,1.1c0.5,0,0.7-0.3,0.7-0.7c0-1.2-2.7-1.2-2.7-3.2 c0-1,0.5-1.8,2.1-1.8c1.3,0,2,0.6,1.9,2h-1.3c0-0.5-0.1-1-0.6-1c-0.4,0-0.7,0.2-0.7,0.7c0,1.2,2.7,1.1,2.7,3.2 C59.7,43.5,58.4,43.7,57.4,43.7z"></path> <path fill="#002D62" d="M60.6,40.3c0-1.7,0-3.4,2.2-3.4c1.4,0,1.9,0.8,1.9,2.2h-1.3c0-0.9-0.2-1.2-0.6-1.2c-0.8,0-0.9,0.7-0.9,2.4 s0.1,2.4,0.9,2.4c0.6,0,0.6-0.8,0.6-1.3h1.3c0,1.7-0.7,2.3-2,2.3C60.6,43.7,60.6,42,60.6,40.3z"></path> <path fill="#002D62" d="M65.6,43.6v-6.5H67v6.5H65.6z"></path> <path fill="#002D62" d="M68.1,43.6v-6.5h3.5v1h-2.2v1.6h2v1h-2v1.9h2.3v1H68.1z"></path> <path fill="#002D62" d="M72.6,43.6v-6.5h1.8l1.7,4.5h0v-4.5h1.3v6.5h-1.8l-1.8-4.8h0v4.8H72.6z"></path> <path fill="#002D62" d="M78.6,40.3c0-1.7,0-3.4,2.2-3.4c1.4,0,1.9,0.8,1.9,2.2h-1.3c0-0.9-0.2-1.2-0.6-1.2c-0.8,0-0.9,0.7-0.9,2.4 s0.1,2.4,0.9,2.4c0.6,0,0.6-0.8,0.6-1.3h1.3c0,1.7-0.7,2.3-2,2.3C78.6,43.7,78.6,42,78.6,40.3z"></path> <path fill="#002D62" d="M83.6,43.6v-6.5h3.5v1H85v1.6h2v1h-2v1.9h2.3v1H83.6z"></path> <path fill="#002D62" d="M23.6,52.1c-0.5,0.5-1.1,0.6-1.8,0.6c-1.5,0-2.3-0.7-2.3-2c0-0.9,0.6-1.4,1.3-1.9c-0.3-0.4-0.7-1-0.7-1.6 c0-0.7,0.9-1.3,2-1.3c0.6,0,1.6,0.3,1.6,1.3c0,0.8-0.6,1.3-1.1,1.7l1,1.3c0.1-0.4,0.1-0.7,0.1-1.3h1.1c0,0.7,0,1.5-0.4,2.2l1,1.3 H24L23.6,52.1z M21.4,49.7c-0.3,0.3-0.7,0.6-0.7,1.1c0,0.6,0.4,1,1,1c0.4,0,0.8-0.1,1-0.4L21.4,49.7z M22.4,47.3 c0-0.3-0.2-0.6-0.6-0.6c-0.3,0-0.6,0.2-0.6,0.5c0,0.4,0.2,0.7,0.5,0.9C22,48,22.4,47.7,22.4,47.3z"></path> <path fill="#002D62" d="M27.9,52.6v-6.5h3.5v1h-2.2v1.6h2v1h-2v1.9h2.3v1H27.9z"></path> <path fill="#002D62" d="M32.4,52.6v-6.5h1.8l1.7,4.5h0v-4.5h1.3v6.5h-1.8l-1.8-4.8h0v4.8H32.4z"></path> <path fill="#002D62" d="M41.4,48.1c0-0.6-0.1-1.1-0.8-1.1c-0.8,0-0.8,1.1-0.8,2.4c0,2,0.2,2.4,1,2.4c0.2,0,0.5-0.1,0.7-0.1v-1.4 h-0.7v-1h2.1v3.3c-0.4,0.1-1.3,0.2-1.8,0.2c-2.3,0-2.5-0.9-2.5-3.4c0-1.6,0.1-3.3,2.3-3.3c1.3,0,2.2,0.7,2.1,2.1H41.4z"></path> <path fill="#002D62" d="M43.9,52.6v-6.5h1.4v6.5H43.9z"></path> <path fill="#002D62" d="M46.4,52.6v-6.5h1.8l1.7,4.5h0v-4.5h1.3v6.5h-1.8l-1.8-4.8h0v4.8H46.4z"></path> <path fill="#002D62" d="M52.4,52.6v-6.5h3.5v1h-2.2v1.6h2v1h-2v1.9H56v1H52.4z"></path> <path fill="#002D62" d="M56.9,52.6v-6.5h3.5v1h-2.2v1.6h2v1h-2v1.9h2.3v1H56.9z"></path> <path fill="#002D62" d="M62.7,52.6h-1.4v-6.5h2.5c0.9,0,1.5,0.6,1.5,1.7c0,0.8-0.3,1.4-1.2,1.6v0c0.3,0,1.2,0.1,1.2,1.3 c0,0.4,0,1.6,0.2,1.9h-1.3c-0.2-0.4-0.1-0.8-0.1-1.3c0-0.8,0.1-1.4-1-1.4h-0.4V52.6z M62.7,48.9h0.6c0.5,0,0.7-0.5,0.7-1 c0-0.6-0.3-0.9-0.7-0.9h-0.6V48.9z"></path> <path fill="#002D62" d="M66.4,52.6v-6.5h1.4v6.5H66.4z"></path> <path fill="#002D62" d="M68.9,52.6v-6.5h1.8l1.7,4.5h0v-4.5h1.3v6.5H72l-1.8-4.8h0v4.8H68.9z"></path> <path fill="#002D62" d="M77.9,48.1c0-0.6-0.1-1.1-0.8-1.1c-0.8,0-0.8,1.1-0.8,2.4c0,2,0.2,2.4,1,2.4c0.2,0,0.5-0.1,0.7-0.1v-1.4 h-0.7v-1h2.1v3.3c-0.4,0.1-1.3,0.2-1.8,0.2c-2.3,0-2.5-0.9-2.5-3.4c0-1.6,0.1-3.3,2.3-3.3c1.3,0,2.2,0.7,2.1,2.1H77.9z"></path> </g> </g> <g id="ME" display="none"> <g display="inline"> <path fill="#002D62" d="M24.6,43.6v-6.5h2.2l1,4.4h0l1.1-4.4H31v6.5h-1.3v-5h0l-1.3,5h-1.3l-1.2-5h0v5H24.6z"></path> <path fill="#002D62" d="M32.1,43.6v-6.5h3.5v1h-2.2v1.6h2v1h-2v1.9h2.3v1H32.1z"></path> <path fill="#002D62" d="M36.6,40.3c0-1.7,0-3.4,2.2-3.4c1.4,0,1.9,0.8,1.9,2.2h-1.3c0-0.9-0.2-1.2-0.6-1.2c-0.8,0-0.9,0.7-0.9,2.4 s0.1,2.4,0.9,2.4c0.6,0,0.6-0.8,0.6-1.3h1.3c0,1.7-0.7,2.3-2,2.3C36.6,43.7,36.6,42,36.6,40.3z"></path> <path fill="#002D62" d="M44.6,39.7v-2.6H46v6.5h-1.4v-2.9h-1.6v2.9h-1.4v-6.5h1.4v2.6H44.6z"></path> <path fill="#002D62" d="M46.6,43.6l1.8-6.5h1.8l1.8,6.5h-1.4l-0.4-1.4h-1.9L48,43.6H46.6z M49.3,38.3L49.3,38.3l-0.6,2.8h1.3 L49.3,38.3z"></path> <path fill="#002D62" d="M52.7,43.6v-6.5h1.8l1.7,4.5h0v-4.5h1.3v6.5h-1.8l-1.8-4.8h0v4.8H52.7z"></path> <path fill="#002D62" d="M58.6,43.6v-6.5H60v6.5H58.6z"></path> <path fill="#002D62" d="M61.1,40.3c0-1.7,0-3.4,2.2-3.4c1.4,0,1.9,0.8,1.9,2.2h-1.3c0-0.9-0.2-1.2-0.6-1.2c-0.8,0-0.9,0.7-0.9,2.4 s0.1,2.4,0.9,2.4c0.6,0,0.6-0.8,0.6-1.3h1.3c0,1.7-0.7,2.3-2,2.3C61.1,43.7,61.1,42,61.1,40.3z"></path> <path fill="#002D62" d="M65.7,43.6l1.8-6.5h1.8l1.8,6.5h-1.4l-0.4-1.4h-1.9L67,43.6H65.7z M68.3,38.3L68.3,38.3l-0.6,2.8h1.3 L68.3,38.3z"></path> <path fill="#002D62" d="M71.7,43.6v-6.5H73v5.4h2v1.1H71.7z"></path> <path fill="#002D62" d="M23.9,52.6v-6.5h3.5v1h-2.2v1.6h2v1h-2v1.9h2.3v1H23.9z"></path> <path fill="#002D62" d="M28.4,52.6v-6.5h1.8l1.7,4.5h0v-4.5h1.3v6.5h-1.8l-1.8-4.8h0v4.8H28.4z"></path> <path fill="#002D62" d="M37.4,48.1c0-0.6-0.1-1.1-0.8-1.1c-0.8,0-0.8,1.1-0.8,2.4c0,2,0.2,2.4,1,2.4c0.2,0,0.5-0.1,0.7-0.1v-1.4 h-0.7v-1h2.1v3.3c-0.4,0.1-1.3,0.2-1.8,0.2c-2.3,0-2.5-0.9-2.5-3.4c0-1.6,0.1-3.3,2.3-3.3c1.3,0,2.2,0.7,2.1,2.1H37.4z"></path> <path fill="#002D62" d="M39.9,52.6v-6.5h1.4v6.5H39.9z"></path> <path fill="#002D62" d="M42.4,52.6v-6.5h1.8l1.7,4.5h0v-4.5h1.3v6.5h-1.8l-1.8-4.8h0v4.8H42.4z"></path> <path fill="#002D62" d="M48.4,52.6v-6.5h3.5v1h-2.2v1.6h2v1h-2v1.9H52v1H48.4z"></path> <path fill="#002D62" d="M52.9,52.6v-6.5h3.5v1h-2.2v1.6h2v1h-2v1.9h2.3v1H52.9z"></path> <path fill="#002D62" d="M58.7,52.6h-1.4v-6.5h2.5c0.9,0,1.5,0.6,1.5,1.7c0,0.8-0.3,1.4-1.2,1.6v0c0.3,0,1.2,0.1,1.2,1.3 c0,0.4,0,1.6,0.2,1.9h-1.3c-0.2-0.4-0.1-0.8-0.1-1.3c0-0.8,0.1-1.4-1-1.4h-0.4V52.6z M58.7,48.9h0.6c0.5,0,0.7-0.5,0.7-1 c0-0.6-0.3-0.9-0.7-0.9h-0.6V48.9z"></path> <path fill="#002D62" d="M62.4,52.6v-6.5h1.4v6.5H62.4z"></path> <path fill="#002D62" d="M64.9,52.6v-6.5h1.8l1.7,4.5h0v-4.5h1.3v6.5H68l-1.8-4.8h0v4.8H64.9z"></path> <path fill="#002D62" d="M73.9,48.1c0-0.6-0.1-1.1-0.8-1.1c-0.8,0-0.8,1.1-0.8,2.4c0,2,0.2,2.4,1,2.4c0.2,0,0.5-0.1,0.7-0.1v-1.4 h-0.7v-1h2.1v3.3c-0.4,0.1-1.3,0.2-1.8,0.2c-2.3,0-2.5-0.9-2.5-3.4c0-1.6,0.1-3.3,2.3-3.3c1.3,0,2.2,0.7,2.1,2.1H73.9z"></path> </g> </g> <g id="NAME" display="none"> <g display="inline"> <path fill="#002D62" d="M7,43.6v-6.5h1.8l1.7,4.5h0v-4.5h1.3v6.5H10l-1.8-4.8h0v4.8H7z"></path> <path fill="#002D62" d="M12.5,43.6l1.8-6.5h1.8l1.8,6.5h-1.4L16,42.1h-1.9l-0.4,1.4H12.5z M15.1,38.3L15.1,38.3l-0.6,2.8h1.3 L15.1,38.3z"></path> <path fill="#002D62" d="M17.6,37.1H19l1,4.7h0l1.1-4.7h1.3l-1.7,6.5h-1.6L17.6,37.1z"></path> <path fill="#002D62" d="M22.3,43.6l1.8-6.5h1.8l1.8,6.5h-1.4l-0.4-1.4H24l-0.4,1.4H22.3z M24.9,38.3L24.9,38.3l-0.6,2.8h1.3 L24.9,38.3z"></path> <path fill="#002D62" d="M28.3,43.6v-6.5h1.4v5.4h2v1.1H28.3z"></path> <path fill="#002D62" d="M33.8,43.6l1.8-6.5h1.8l1.8,6.5h-1.4l-0.4-1.4h-1.9l-0.4,1.4H33.8z M36.4,38.3L36.4,38.3l-0.6,2.8h1.3 L36.4,38.3z"></path> <path fill="#002D62" d="M41.1,43.6h-1.4v-6.5h2.5c0.9,0,1.5,0.6,1.5,1.7c0,0.8-0.3,1.4-1.2,1.6v0c0.3,0,1.2,0.1,1.2,1.3 c0,0.4,0,1.6,0.2,1.9h-1.3c-0.2-0.4-0.1-0.8-0.1-1.3c0-0.8,0.1-1.4-1-1.4h-0.4V43.6z M41.1,39.9h0.6c0.5,0,0.7-0.5,0.7-1 c0-0.6-0.3-0.9-0.7-0.9h-0.6V39.9z"></path> <path fill="#002D62" d="M44.7,40.3c0-1.7,0-3.4,2.2-3.4c1.4,0,1.9,0.8,1.9,2.2h-1.3c0-0.9-0.2-1.2-0.6-1.2c-0.8,0-0.9,0.7-0.9,2.4 s0.1,2.4,0.9,2.4c0.6,0,0.6-0.8,0.6-1.3H49c0,1.7-0.7,2.3-2,2.3C44.7,43.7,44.7,42,44.7,40.3z"></path> <path fill="#002D62" d="M52.8,39.7v-2.6h1.4v6.5h-1.4v-2.9h-1.6v2.9h-1.4v-6.5h1.4v2.6H52.8z"></path> <path fill="#002D62" d="M55.3,43.6v-6.5h1.4v6.5H55.3z"></path> <path fill="#002D62" d="M61.7,37.1v1.1h-1.5v5.4h-1.4v-5.4h-1.5v-1.1H61.7z"></path> <path fill="#002D62" d="M62.3,43.6v-6.5h3.5v1h-2.2v1.6h2v1h-2v1.9h2.3v1H62.3z"></path> <path fill="#002D62" d="M66.8,40.3c0-1.7,0-3.4,2.2-3.4c1.4,0,1.9,0.8,1.9,2.2h-1.3c0-0.9-0.2-1.2-0.6-1.2c-0.8,0-0.9,0.7-0.9,2.4 s0.1,2.4,0.9,2.4c0.6,0,0.6-0.8,0.6-1.3H71c0,1.7-0.7,2.3-2,2.3C66.8,43.7,66.8,42,66.8,40.3z"></path> <path fill="#002D62" d="M75.7,37.1v1.1h-1.5v5.4h-1.4v-5.4h-1.5v-1.1H75.7z"></path> <path fill="#002D62" d="M80.7,37.1v4.6c0,1-0.5,2-2.2,2c-1.5,0-2.2-0.8-2.2-2v-4.6h1.4v4.5c0,0.8,0.3,1.1,0.8,1.1 c0.6,0,0.9-0.4,0.9-1.1v-4.5H80.7z"></path> <path fill="#002D62" d="M83.2,43.6h-1.4v-6.5h2.5c0.9,0,1.5,0.6,1.5,1.7c0,0.8-0.3,1.4-1.2,1.6v0c0.3,0,1.2,0.1,1.2,1.3 c0,0.4,0,1.6,0.2,1.9h-1.3c-0.2-0.4-0.1-0.8-0.1-1.3c0-0.8,0.1-1.4-1-1.4h-0.4V43.6z M83.2,39.9h0.6c0.5,0,0.7-0.5,0.7-1 c0-0.6-0.3-0.9-0.7-0.9h-0.6V39.9z"></path> <path fill="#002D62" d="M86.8,43.6v-6.5h3.5v1h-2.2v1.6h2v1h-2v1.9h2.3v1H86.8z"></path> <path fill="#002D62" d="M7.1,52.1c-0.5,0.5-1.1,0.6-1.8,0.6c-1.5,0-2.3-0.7-2.3-2c0-0.9,0.6-1.4,1.3-1.9c-0.3-0.4-0.7-1-0.7-1.6 c0-0.7,0.9-1.3,2-1.3c0.6,0,1.6,0.3,1.6,1.3c0,0.8-0.6,1.3-1.1,1.7l1,1.3c0.1-0.4,0.1-0.7,0.1-1.3h1.1c0,0.7,0,1.5-0.4,2.2l1,1.3 H7.5L7.1,52.1z M4.9,49.7c-0.3,0.3-0.7,0.6-0.7,1.1c0,0.6,0.4,1,1,1c0.4,0,0.8-0.1,1-0.4L4.9,49.7z M5.9,47.3 c0-0.3-0.2-0.6-0.6-0.6c-0.3,0-0.6,0.2-0.6,0.5c0,0.4,0.2,0.7,0.5,0.9C5.5,48,5.9,47.7,5.9,47.3z"></path> <path fill="#002D62" d="M11.4,52.6v-6.5h2.2l1,4.4h0l1.1-4.4h2.1v6.5h-1.3v-5h0l-1.3,5h-1.3l-1.2-5h0v5H11.4z"></path> <path fill="#002D62" d="M18.4,52.6l1.8-6.5H22l1.8,6.5h-1.4L22,51.1h-1.9l-0.4,1.4H18.4z M21,47.3L21,47.3l-0.6,2.8h1.3L21,47.3z"></path> <path fill="#002D62" d="M25.7,52.6h-1.4v-6.5h2.5c0.9,0,1.5,0.6,1.5,1.7c0,0.8-0.3,1.4-1.2,1.6v0c0.3,0,1.2,0.1,1.2,1.3 c0,0.4,0,1.6,0.2,1.9h-1.3C27,52.2,27,51.7,27,51.3c0-0.8,0.1-1.4-1-1.4h-0.4V52.6z M25.7,48.9h0.6c0.5,0,0.7-0.5,0.7-1 c0-0.6-0.3-0.9-0.7-0.9h-0.6V48.9z"></path> <path fill="#002D62" d="M29.4,52.6v-6.5h1.4v6.5H29.4z"></path> <path fill="#002D62" d="M31.9,52.6v-6.5h1.8l1.7,4.5h0v-4.5h1.3v6.5H35l-1.8-4.8h0v4.8H31.9z"></path> <path fill="#002D62" d="M37.9,52.6v-6.5h3.5v1h-2.2v1.6h2v1h-2v1.9h2.3v1H37.9z"></path> <path fill="#002D62" d="M44.4,52.6v-6.5h3.5v1h-2.2v1.6h2v1h-2v1.9H48v1H44.4z"></path> <path fill="#002D62" d="M48.9,52.6v-6.5h1.8l1.7,4.5h0v-4.5h1.3v6.5H52l-1.8-4.8h0v4.8H48.9z"></path> <path fill="#002D62" d="M57.9,48.1c0-0.6-0.1-1.1-0.8-1.1c-0.8,0-0.8,1.1-0.8,2.4c0,2,0.2,2.4,1,2.4c0.2,0,0.5-0.1,0.7-0.1v-1.4 h-0.7v-1h2.1v3.3c-0.4,0.1-1.3,0.2-1.8,0.2c-2.3,0-2.5-0.9-2.5-3.4c0-1.6,0.1-3.3,2.3-3.3c1.3,0,2.2,0.7,2.1,2.1H57.9z"></path> <path fill="#002D62" d="M60.4,52.6v-6.5h1.4v6.5H60.4z"></path> <path fill="#002D62" d="M62.9,52.6v-6.5h1.8l1.7,4.5h0v-4.5h1.3v6.5H66l-1.8-4.8h0v4.8H62.9z"></path> <path fill="#002D62" d="M68.9,52.6v-6.5h3.5v1h-2.2v1.6h2v1h-2v1.9h2.3v1H68.9z"></path> <path fill="#002D62" d="M73.4,52.6v-6.5h3.5v1h-2.2v1.6h2v1h-2v1.9H77v1H73.4z"></path> <path fill="#002D62" d="M79.2,52.6h-1.4v-6.5h2.5c0.9,0,1.5,0.6,1.5,1.7c0,0.8-0.3,1.4-1.2,1.6v0c0.3,0,1.2,0.1,1.2,1.3 c0,0.4,0,1.6,0.2,1.9h-1.3c-0.2-0.4-0.1-0.8-0.1-1.3c0-0.8,0.1-1.4-1-1.4h-0.4V52.6z M79.2,48.9h0.6c0.5,0,0.7-0.5,0.7-1 c0-0.6-0.3-0.9-0.7-0.9h-0.6V48.9z"></path> <path fill="#002D62" d="M82.9,52.6v-6.5h1.4v6.5H82.9z"></path> <path fill="#002D62" d="M85.4,52.6v-6.5h1.8l1.7,4.5h0v-4.5h1.3v6.5h-1.8l-1.8-4.8h0v4.8H85.4z"></path> <path fill="#002D62" d="M94.4,48.1c0-0.6-0.1-1.1-0.8-1.1c-0.8,0-0.8,1.1-0.8,2.4c0,2,0.2,2.4,1,2.4c0.2,0,0.5-0.1,0.7-0.1v-1.4 h-0.7v-1h2.1v3.3c-0.4,0.1-1.3,0.2-1.8,0.2c-2.3,0-2.5-0.9-2.5-3.4c0-1.6,0.1-3.3,2.3-3.3c1.3,0,2.2,0.7,2.1,2.1H94.4z"></path> </g> </g> <g id="NERS"> <g> <path fill="#FFFFFF" d="M1.1,43.6v-6.5H3l1.7,4.5h0v-4.5H6v6.5H4.2l-1.8-4.8h0v4.8H1.1z"></path> <path fill="#FFFFFF" d="M11.5,37.1v4.6c0,1-0.5,2-2.2,2c-1.5,0-2.2-0.8-2.2-2v-4.6h1.4v4.5c0,0.8,0.3,1.1,0.8,1.1 c0.6,0,0.9-0.4,0.9-1.1v-4.5H11.5z"></path> <path fill="#FFFFFF" d="M12.6,40.3c0-1.7,0-3.4,2.2-3.4c1.4,0,1.9,0.8,1.9,2.2h-1.3c0-0.9-0.2-1.2-0.6-1.2c-0.8,0-0.9,0.7-0.9,2.4 c0,1.7,0.1,2.4,0.9,2.4c0.6,0,0.6-0.8,0.6-1.3h1.3c0,1.7-0.7,2.3-2,2.3C12.6,43.7,12.6,42,12.6,40.3z"></path> <path fill="#FFFFFF" d="M17.7,43.6v-6.5H19v5.4h2v1.1H17.7z"></path> <path fill="#FFFFFF" d="M21.6,43.6v-6.5h3.5v1H23v1.6h2v1h-2v1.9h2.3v1H21.6z"></path> <path fill="#FFFFFF" d="M25.6,43.6l1.8-6.5h1.8l1.8,6.5h-1.4l-0.4-1.4h-1.9L27,43.6H25.6z M28.3,38.3L28.3,38.3l-0.6,2.8h1.3 L28.3,38.3z"></path> <path fill="#FFFFFF" d="M33,43.6h-1.4v-6.5h2.5c0.9,0,1.5,0.6,1.5,1.7c0,0.8-0.3,1.4-1.2,1.6v0c0.3,0,1.2,0.1,1.2,1.3 c0,0.4,0,1.6,0.2,1.9h-1.3c-0.2-0.4-0.1-0.8-0.1-1.3c0-0.8,0.1-1.4-1-1.4H33V43.6z M33,39.9h0.6c0.5,0,0.7-0.5,0.7-1 c0-0.6-0.3-0.9-0.7-0.9H33V39.9z"></path> <path fill="#FFFFFF" d="M38.6,43.6v-6.5h3.5v1H40v1.6h2v1h-2v1.9h2.3v1H38.6z"></path> <path fill="#FFFFFF" d="M43.1,43.6v-6.5H45l1.7,4.5h0v-4.5H48v6.5h-1.8l-1.8-4.8h0v4.8H43.1z"></path> <path fill="#FFFFFF" d="M52.1,39.1c0-0.6-0.1-1.1-0.8-1.1c-0.8,0-0.8,1.1-0.8,2.4c0,2,0.2,2.4,1,2.4c0.2,0,0.5-0.1,0.7-0.1v-1.4 h-0.7v-1h2.1v3.3c-0.4,0.1-1.3,0.2-1.8,0.2c-2.3,0-2.5-0.9-2.5-3.4c0-1.6,0.1-3.3,2.3-3.3c1.3,0,2.2,0.7,2.1,2.1H52.1z"></path> <path fill="#FFFFFF" d="M54.6,43.6v-6.5H56v6.5H54.6z"></path> <path fill="#FFFFFF" d="M57.2,43.6v-6.5H59l1.7,4.5h0v-4.5H62v6.5h-1.8l-1.8-4.8h0v4.8H57.2z"></path> <path fill="#FFFFFF" d="M63.1,43.6v-6.5h3.5v1h-2.2v1.6h2v1h-2v1.9h2.3v1H63.1z"></path> <path fill="#FFFFFF" d="M67.6,43.6v-6.5h3.5v1H69v1.6h2v1h-2v1.9h2.3v1H67.6z"></path> <path fill="#FFFFFF" d="M73.5,43.6h-1.4v-6.5h2.5c0.9,0,1.5,0.6,1.5,1.7c0,0.8-0.3,1.4-1.2,1.6v0c0.3,0,1.2,0.1,1.2,1.3 c0,0.4,0,1.6,0.2,1.9h-1.3c-0.2-0.4-0.1-0.8-0.1-1.3c0-0.8,0.1-1.4-1-1.4h-0.4V43.6z M73.5,39.9h0.6c0.5,0,0.7-0.5,0.7-1 c0-0.6-0.3-0.9-0.7-0.9h-0.6V39.9z"></path> <path fill="#FFFFFF" d="M77.2,43.6v-6.5h1.4v6.5H77.2z"></path> <path fill="#FFFFFF" d="M79.7,43.6v-6.5h1.8l1.7,4.5h0v-4.5h1.3v6.5h-1.8l-1.8-4.8h0v4.8H79.7z"></path> <path fill="#FFFFFF" d="M88.6,39.1c0-0.6-0.1-1.1-0.8-1.1c-0.8,0-0.8,1.1-0.8,2.4c0,2,0.2,2.4,1,2.4c0.2,0,0.5-0.1,0.7-0.1v-1.4 h-0.7v-1H90v3.3c-0.4,0.1-1.3,0.2-1.8,0.2c-2.3,0-2.5-0.9-2.5-3.4c0-1.6,0.1-3.3,2.3-3.3c1.3,0,2.2,0.7,2.1,2.1H88.6z"></path> <path fill="#FFFFFF" d="M96.8,43.1c-0.5,0.5-1.1,0.6-1.8,0.6c-1.5,0-2.3-0.7-2.3-2c0-0.9,0.6-1.4,1.3-1.9c-0.3-0.4-0.7-1-0.7-1.6 c0-0.7,0.9-1.3,2-1.3c0.6,0,1.6,0.3,1.6,1.3c0,0.8-0.6,1.3-1.1,1.7l1,1.3c0.1-0.4,0.1-0.7,0.1-1.3H98c0,0.7,0,1.5-0.4,2.2l1,1.3 h-1.3L96.8,43.1z M94.7,40.7c-0.3,0.3-0.7,0.6-0.7,1.1c0,0.6,0.4,1,1,1c0.4,0,0.8-0.1,1-0.4L94.7,40.7z M95.6,38.3 c0-0.3-0.2-0.6-0.6-0.6c-0.3,0-0.6,0.2-0.6,0.5c0,0.4,0.2,0.7,0.5,0.9C95.3,39,95.6,38.7,95.6,38.3z"></path> <path fill="#FFFFFF" d="M3.7,52.6H2.4v-6.5h2.5c0.9,0,1.5,0.6,1.5,1.7c0,0.8-0.3,1.4-1.2,1.6v0c0.3,0,1.2,0.1,1.2,1.3 c0,0.4,0,1.6,0.2,1.9H5.2C5,52.2,5,51.7,5,51.3c0-0.8,0.1-1.4-1-1.4H3.7V52.6z M3.7,48.9h0.6c0.5,0,0.7-0.5,0.7-1 c0-0.6-0.3-0.9-0.7-0.9H3.7V48.9z"></path> <path fill="#FFFFFF" d="M6.9,52.6l1.8-6.5h1.8l1.8,6.5h-1.4l-0.4-1.4H8.6l-0.4,1.4H6.9z M9.5,47.3L9.5,47.3l-0.6,2.8h1.3L9.5,47.3 z"></path> <path fill="#FFFFFF" d="M12.9,46.1h2.3c1.8,0,2.1,1.2,2.1,3.2c0,1,0.2,3.3-2.2,3.3h-2.2V46.1z M14.3,51.6h0.7c0.8,0,1-0.6,1-2.3 c0-1.2,0-2.3-0.9-2.3h-0.7V51.6z"></path> <path fill="#FFFFFF" d="M18.4,52.6v-6.5h1.4v6.5H18.4z"></path> <path fill="#FFFFFF" d="M20.8,49.3c0-1.7,0-3.4,2.2-3.4c2.2,0,2.2,1.6,2.2,3.4c0,1.7,0,3.4-2.2,3.4C20.8,52.7,20.8,51,20.8,49.3z M23.9,49.3c0-1.7-0.1-2.4-0.9-2.4c-0.8,0-0.9,0.7-0.9,2.4c0,1.7,0.1,2.4,0.9,2.4C23.8,51.7,23.9,51,23.9,49.3z"></path> <path fill="#FFFFFF" d="M26.4,52.6v-6.5h1.4v5.4h2v1.1H26.4z"></path> <path fill="#FFFFFF" d="M30.3,49.3c0-1.7,0-3.4,2.2-3.4c2.2,0,2.2,1.6,2.2,3.4c0,1.7,0,3.4-2.2,3.4C30.3,52.7,30.3,51,30.3,49.3z M33.4,49.3c0-1.7-0.1-2.4-0.9-2.4c-0.8,0-0.9,0.7-0.9,2.4c0,1.7,0.1,2.4,0.9,2.4C33.3,51.7,33.4,51,33.4,49.3z"></path> <path fill="#FFFFFF" d="M38.9,48.1c0-0.6-0.1-1.1-0.8-1.1c-0.8,0-0.8,1.1-0.8,2.4c0,2,0.2,2.4,1,2.4c0.2,0,0.5-0.1,0.7-0.1v-1.4 h-0.7v-1h2.1v3.3c-0.4,0.1-1.3,0.2-1.8,0.2c-2.3,0-2.5-0.9-2.5-3.4c0-1.6,0.1-3.3,2.3-3.3c1.3,0,2.2,0.7,2.1,2.1H38.9z"></path> <path fill="#FFFFFF" d="M41.4,52.6v-6.5h1.4v6.5H41.4z"></path> <path fill="#FFFFFF" d="M43.8,49.3c0-1.7,0-3.4,2.2-3.4c1.4,0,1.9,0.8,1.9,2.2h-1.3c0-0.9-0.2-1.2-0.6-1.2c-0.8,0-0.9,0.7-0.9,2.4 c0,1.7,0.1,2.4,0.9,2.4c0.6,0,0.6-0.8,0.6-1.3H48c0,1.7-0.7,2.3-2,2.3C43.8,52.7,43.8,51,43.8,49.3z"></path> <path fill="#FFFFFF" d="M48.4,52.6l1.8-6.5H52l1.8,6.5h-1.4L52,51.1h-1.9l-0.4,1.4H48.4z M51,47.3L51,47.3l-0.6,2.8h1.3L51,47.3z"></path> <path fill="#FFFFFF" d="M54.4,52.6v-6.5h1.4v5.4h2v1.1H54.4z"></path> <path fill="#FFFFFF" d="M62.1,52.7c-1.7,0-2-1-1.9-2.1h1.4c0,0.6,0,1.1,0.8,1.1c0.5,0,0.7-0.3,0.7-0.7c0-1.2-2.7-1.2-2.7-3.2 c0-1,0.5-1.8,2.1-1.8c1.3,0,2,0.6,1.9,2H63c0-0.5-0.1-1-0.6-1c-0.4,0-0.7,0.2-0.7,0.7c0,1.2,2.7,1.1,2.7,3.2 C64.4,52.5,63.2,52.7,62.1,52.7z"></path> <path fill="#FFFFFF" d="M65.3,49.3c0-1.7,0-3.4,2.2-3.4c1.4,0,1.9,0.8,1.9,2.2h-1.3c0-0.9-0.2-1.2-0.6-1.2c-0.8,0-0.9,0.7-0.9,2.4 c0,1.7,0.1,2.4,0.9,2.4c0.6,0,0.6-0.8,0.6-1.3h1.3c0,1.7-0.7,2.3-2,2.3C65.3,52.7,65.3,51,65.3,49.3z"></path> <path fill="#FFFFFF" d="M70.4,52.6v-6.5h1.4v6.5H70.4z"></path> <path fill="#FFFFFF" d="M72.9,52.6v-6.5h3.5v1h-2.2v1.6h2v1h-2v1.9h2.3v1H72.9z"></path> <path fill="#FFFFFF" d="M77.4,52.6v-6.5h1.8l1.7,4.5h0v-4.5h1.3v6.5h-1.8l-1.8-4.8h0v4.8H77.4z"></path> <path fill="#FFFFFF" d="M83.3,49.3c0-1.7,0-3.4,2.2-3.4c1.4,0,1.9,0.8,1.9,2.2h-1.3c0-0.9-0.2-1.2-0.6-1.2c-0.8,0-0.9,0.7-0.9,2.4 c0,1.7,0.1,2.4,0.9,2.4c0.6,0,0.6-0.8,0.6-1.3h1.3c0,1.7-0.7,2.3-2,2.3C83.3,52.7,83.3,51,83.3,49.3z"></path> <path fill="#FFFFFF" d="M88.4,52.6v-6.5h3.5v1h-2.2v1.6h2v1h-2v1.9H92v1H88.4z"></path> <path fill="#FFFFFF" d="M94.7,52.7c-1.7,0-2-1-1.9-2.1h1.4c0,0.6,0,1.1,0.8,1.1c0.5,0,0.7-0.3,0.7-0.7c0-1.2-2.7-1.2-2.7-3.2 c0-1,0.5-1.8,2.1-1.8c1.3,0,2,0.6,1.9,2h-1.3c0-0.5-0.1-1-0.6-1c-0.4,0-0.7,0.2-0.7,0.7c0,1.2,2.7,1.1,2.7,3.2 C96.9,52.5,95.7,52.7,94.7,52.7z"></path> </g> <g> </g> <g> </g> <g> </g> <g> </g> <g> </g> <g> </g> </g> </svg> 