<?xml version="1.0" encoding="UTF-8"?> <svg xmlns="http://www.w3.org/2000/svg" xmlns:xlink="http://www.w3.org/1999/xlink" x="0px" y="0px" viewBox="0 0 467.7 39.7" xml:space="preserve"> <g id="CoE" display="none"> <path display="inline" fill="#002D62" d="M73.2,5.5L73.2,5.5l6,19.3h2.6l6.1-19.3h0.1v19.3h2.8V3.1h-4.6l-5.5,18.2h-0.1L75,3.1 h-4.5v21.7h2.6V5.5z M73.2,5.5"></path> <rect x="94.5" y="3.1" display="inline" fill="#002D62" width="2.8" height="21.7"></rect> <path display="inline" fill="#002D62" d="M113.6,9c0.3-4.2-1.4-6.4-5.7-6.4c-4.3,0-7,1.7-7,7.9v6.1c0,8.4,4.1,8.6,6.8,8.6 c1.4,0,6.2,0,6.1-6.8H111c0,4.2-2.6,4.5-3.4,4.5c-2.1,0-3.9-0.6-3.9-5.9v-5.8c0-3.7,0.5-4.3,0.6-4.5c0.1-0.3,1-1.7,3.3-1.7 c0.6,0,1.9,0.2,2.4,0.9c0.6,0.7,0.7,1.9,0.6,3.1H113.6z M113.6,9"></path> <path display="inline" fill="#002D62" d="M119.4,24.7v-9.9h7.6v9.9h2.8V3.1H127v9.4h-7.6V3.1h-2.8v21.7H119.4z M119.4,24.7"></path> <rect x="133.8" y="3.1" display="inline" fill="#002D62" width="2.8" height="21.7"></rect> <path display="inline" fill="#002D62" d="M153.7,8.9c0.2-4.5-2-6.2-6.7-6.2c-4.6,0-6.8,2.8-6.8,7.1v7.1c0,6,2.2,8.4,6.8,8.4 c2.8,0,4.9-0.7,6.6-1.6V13h-6.8v2.4h4v6.5c-0.6,0.4-1.9,1-3.9,1c-2.6,0-4-1.2-4-5.9V9.6c0-4.5,3.1-4.7,4-4.7c2.8,0,3.8,1.4,3.8,3.9 H153.7z M153.7,8.9"></path> <path display="inline" fill="#002D62" d="M155.5,24.7h2.8l1.6-5.2h8.4l1.6,5.2h3.1l-7.1-21.7h-3.5L155.5,24.7z M167.5,17.2h-6.9 L164,5.6h0.1L167.5,17.2z M167.5,17.2"></path> <path display="inline" fill="#002D62" d="M187,3.1v18.5h-0.1l-8.4-18.5h-3.9v21.7h2.5V5.9h0.1l8.5,18.8h3.8V3.1H187z M187,3.1"></path> <path display="inline" fill="#002D62" d="M212.7,24.7v-2.4h-8.6v-7.5h7.8v-2.4h-7.8v-7h8.4V3.1h-11.2v21.7H212.7z M212.7,24.7"></path> <path display="inline" fill="#002D62" d="M227.6,3.1v18.5h-0.1l-8.4-18.5h-3.9v21.7h2.5V5.9h0.1l8.5,18.8h3.8V3.1H227.6z M227.6,3.1"></path> <path display="inline" fill="#002D62" d="M247,8.9c0.2-4.5-2-6.2-6.7-6.2c-4.6,0-6.8,2.8-6.8,7.1v7.1c0,6,2.2,8.4,6.8,8.4 c2.8,0,4.9-0.7,6.6-1.6V13h-6.7v2.4h4v6.5c-0.6,0.4-1.9,1-3.9,1c-2.6,0-4-1.2-4-5.9V9.6c0-4.5,3.1-4.7,4-4.7c2.8,0,3.8,1.4,3.8,3.9 H247z M247,8.9"></path> <rect x="251.1" y="3.1" display="inline" fill="#002D62" width="2.8" height="21.7"></rect> <path display="inline" fill="#002D62" d="M270.2,3.1v18.5h-0.1l-8.4-18.5h-3.9v21.7h2.5V5.9h0.1l8.5,18.8h3.8V3.1H270.2z M270.2,3.1"></path> <path display="inline" fill="#002D62" d="M287.7,24.7v-2.4h-8.6v-7.5h7.8v-2.4h-7.8v-7h8.4V3.1h-11.2v21.7H287.7z M287.7,24.7"></path> <path display="inline" fill="#002D62" d="M301.3,24.7v-2.4h-8.6v-7.5h7.8v-2.4h-7.8v-7h8.4V3.1H290v21.7H301.3z M301.3,24.7"></path> <path display="inline" fill="#002D62" d="M306.3,5.5h4.2c2.1,0,2.9,1.7,2.9,3.3c0,1.9-1,3.6-2.9,3.6h-4.1V5.5z M309.6,14.8 c0.9,0,3.1,0.1,3.3,2.8c0.2,2.9,0.1,5.7,0.8,7.2h2.9c-0.4-1.4-0.7-4.7-0.7-5.7c-0.2-4.4-1-5.2-3.5-5.6v-0.1c2.5-0.4,4-2.4,4-4.9 c0-2.7-1.4-5.4-5.2-5.4h-7.5v21.7h2.8v-10H309.6z M309.6,14.8"></path> <rect x="319.3" y="3.1" display="inline" fill="#002D62" width="2.8" height="21.7"></rect> <path display="inline" fill="#002D62" d="M338.5,3.1v18.5h-0.1L330,3.1h-3.9v21.7h2.5V5.9h0.1l8.5,18.8h3.8V3.1H338.5z M338.5,3.1"></path> <path display="inline" fill="#002D62" d="M357.9,8.9c0.2-4.5-2-6.2-6.7-6.2c-4.6,0-6.8,2.8-6.8,7.1v7.1c0,6,2.2,8.4,6.8,8.4 c2.8,0,4.9-0.7,6.6-1.6V13H351v2.4h4v6.5c-0.6,0.4-1.9,1-3.9,1c-2.6,0-4-1.2-4-5.9V9.6c0-4.5,3.1-4.7,4-4.7c2.8,0,3.8,1.4,3.8,3.9 H357.9z M357.9,8.9"></path> </g> <g id="Common_Elements_to_CoE_Master" display="none"> <path display="inline" fill="#FFCF01" d="M27.2,31.5l-9.9-13.6v9.9h3.9v9.7H3v-9.7h3.7V12.6H3V2.9h14.3l9.9,13.7l9.9-13.7h14.3v9.7 h-3.7v15.2h3.7v9.7H33.2v-9.7h3.9v-9.9L27.2,31.5L27.2,31.5z M27.2,31.5"></path> <path display="inline" fill="#002D62" d="M208.3,37.6v-0.4c0.5,0,0.9-0.1,0.9-0.5c0-0.1,0-0.3-0.1-0.4l-0.2-0.7h-2.6l-0.2,0.6 c0,0.2-0.1,0.3-0.1,0.5c0,0.5,0.5,0.6,1,0.6v0.4h-3v-0.4c0.8,0,1-0.2,1.3-1l2-5.4l-0.1-0.2c0.8-0.3,1.1-0.4,1.5-0.7 c0.1,0.5,0.2,0.6,0.3,1.1l1.6,5c0.3,0.9,0.4,1.1,1.2,1.2v0.4H208.3L208.3,37.6z M207.6,31.7l-1.1,3h2.1L207.6,31.7L207.6,31.7z M182.1,35.9c-0.3,0.5-1.1,1.8-3.1,1.8c-2.2,0-3.6-1.6-3.6-3.8c0-2,1.2-3.9,3.7-3.9c1.3,0,2,0.5,2.4,0.9l0.5-0.5l0,2.2l-0.3,0.1 c-0.1-0.4-0.3-0.8-0.8-1.3c-0.2-0.2-0.8-0.7-1.5-0.7c-1.3,0-2.4,1.1-2.4,3c0,1.6,0.9,3.1,2.6,3.1c1.3,0,1.8-0.7,2.1-1.3L182.1,35.9 L182.1,35.9z M183.3,37.6v-0.4c0.8-0.1,0.8-0.2,0.8-1c0-0.3,0-0.5,0-0.8v-3.1c0-0.5,0-1,0-1.2c0-0.4-0.2-0.5-0.8-0.6v-0.4h3.1v0.4 c-0.6,0.1-0.8,0.1-0.9,0.5c-0.1,0.2-0.1,0.8-0.1,1.2v1c0.6,0,1.1,0.1,1.7,0.1c0.6,0,1.1,0,1.7-0.1v-1.2c0-1.3,0-1.4-1-1.5v-0.4h3.2 v0.4c-0.9,0.1-0.9,0.1-0.9,1.5v3.1c0,0.3,0,1.2,0,1.4c0,0.4,0.3,0.5,0.8,0.5v0.4h-3.2v-0.4c0.7-0.1,0.9-0.1,1-0.6c0-0.2,0-0.5,0-1 v-1.3c-0.6,0-1.1-0.1-1.7-0.1c-0.6,0-1.1,0-1.8,0.1v1.3c0,1.5,0,1.5,1,1.6v0.4L183.3,37.6L183.3,37.6z M192.3,37.6v-0.4 c0.7-0.1,0.9-0.2,0.9-0.9v-0.9v-3c0-1.5,0-1.6-0.9-1.7v-0.4h3.1v0.4c-0.9,0.1-0.9,0.1-0.9,1.7v3c0,0.3,0,1.1,0,1.3 c0,0.4,0.3,0.6,0.8,0.6v0.4H192.3L192.3,37.6z M171.4,37.6v-0.4c0.7-0.1,0.9-0.2,0.9-0.9v-0.9v-3c0-1.5,0-1.6-0.9-1.7v-0.4h3v0.4 c-0.9,0.1-0.9,0.1-0.9,1.7v3c0,0.3,0,1.1,0,1.3c0.1,0.4,0.3,0.6,0.8,0.6v0.4H171.4L171.4,37.6z M166.8,37.6v-0.4 c0.9-0.1,0.9-0.1,0.9-1.5V32l-2.6,5.6h-0.6l-2.4-5.7l-0.1,4.3c0,0.7,0.1,0.9,0.9,0.9v0.4h-2.5v-0.4c0.6,0,0.8-0.1,0.9-0.6 c0-0.2,0.1-0.8,0.1-1.2l0.1-3.1c0-0.2,0-0.6,0-0.8c0-0.7-0.1-0.8-0.8-0.8v-0.4h2.3l2.3,5.6l2.5-5.6h2.2v0.4 c-0.9,0.1-0.9,0.1-0.9,1.3v3c0,0.5,0,1.1,0,1.5c0,0.5,0.2,0.6,0.8,0.7v0.4H166.8L166.8,37.6z M212.2,37.6v-0.4c0.6,0,0.8,0,0.9-0.5 c0.1-0.5,0.1-4.8,0.1-5.6c-0.4-0.4-0.6-0.4-1.1-0.5v-0.4h2.2c0.6,0.9,0.7,1.1,1.8,2.4l2,2.5v-3.3c0-1.2,0-1.2-1.2-1.3v-0.4h2.9v0.4 c-0.8,0-0.9,0.2-0.9,1.4l-0.1,5.7h-0.4l-0.7-0.8c-0.3-0.4-0.7-0.8-1-1.2L214,32v3.8c0,1.2,0.1,1.2,1.2,1.3v0.4H212.2L212.2,37.6z M150.9,33.9c0,2.5-1.7,3.9-3.7,3.9c-2.1,0-3.8-1.5-3.8-3.9c0-2,1.3-3.8,3.7-3.8C149.4,30.1,150.9,31.6,150.9,33.9L150.9,33.9z M147.3,37.1c0.4,0,1-0.2,1.5-0.9c0.5-0.8,0.6-1.5,0.6-2.5c0-0.9-0.3-1.8-0.8-2.3c-0.2-0.2-0.7-0.6-1.3-0.6c-0.6,0-1.1,0.4-1.3,0.6 c-0.5,0.6-0.8,1.4-0.8,2.4c0,1,0.1,1.7,0.7,2.5C146.3,36.9,146.9,37.1,147.3,37.1L147.3,37.1z M151.7,37.1v0.4h3v-0.4 c-0.8-0.1-0.9-0.1-0.9-0.9l0-2.1h0.8c0.8,0,1.3,0.1,1.3,0.9h0.4v-2.4H156c0,0.8-0.3,0.9-1.2,0.9h-1v-2.5c0.3,0,0.4,0,0.9,0 c1.4,0,1.9,0,2.1,1.1h0.4l-0.1-1.8h-5.4v0.4c0.5,0.1,0.8,0.1,0.8,0.4c0,0.2,0.1,1,0.1,1.3v2.6c0,0.2,0,1.1,0,1.3 C152.5,37,152.4,37.1,151.7,37.1L151.7,37.1z M88.6,37.5v-0.4c0.7-0.1,0.9-0.2,0.9-0.9v-0.9v-3c0-1.5,0-1.6-0.9-1.7v-0.4h3v0.4 c-0.9,0.1-0.9,0.1-0.9,1.7v3c0,0.3,0,1.1,0,1.3c0,0.4,0.3,0.6,0.8,0.6v0.4H88.6L88.6,37.5z M120.9,37.5v-0.4 c0.7-0.1,0.9-0.2,0.9-0.9v-0.9v-3c0-1.5,0-1.6-0.9-1.7v-0.4h3v0.4c-0.9,0.1-0.9,0.1-0.9,1.7v3c0,0.3,0,1.1,0,1.3 c0,0.4,0.3,0.6,0.8,0.6v0.4H120.9L120.9,37.5z M79.7,37.5v-0.4c0.6,0,0.8,0,0.9-0.5c0.1-0.5,0.1-4.8,0.1-5.6 c-0.4-0.4-0.6-0.4-1.1-0.5v-0.4h2.2c0.6,0.9,0.7,1.1,1.8,2.4l2.1,2.5v-3.3c0-1.2,0-1.2-1.2-1.3v-0.4h2.9v0.4 c-0.8,0-0.9,0.2-0.9,1.4l-0.1,5.7H86l-0.7-0.8c-0.3-0.4-0.7-0.8-1-1.2L81.4,32v3.8c0,1.2,0.1,1.2,1.2,1.3v0.4H79.7L79.7,37.5z M114.9,35.2l0.4,0c0.4,1.2,1.1,1.8,2.2,1.8c0.8,0,1.5-0.3,1.5-1.1c0-0.8-0.8-1.2-1.2-1.3c-0.3-0.1-0.6-0.2-0.9-0.3 c-0.6-0.2-1.7-0.7-1.7-2.1c0-1.4,1.1-2.1,2.3-2.1c0.5,0,1.1,0.1,1.7,0.5l0.4-0.3l0.2,2.2l-0.4,0.1c-0.1-0.5-0.2-0.7-0.5-1.1 c-0.4-0.5-0.8-0.7-1.4-0.7c-0.8,0-1.2,0.4-1.2,1c0,0.9,0.9,1.2,1.7,1.4c0.4,0.1,0.8,0.3,1.1,0.4c0.6,0.3,1.1,1,1.1,1.9 c0,1.3-1,2.3-2.6,2.3c-1,0-1.6-0.4-1.9-0.6l-0.6-0.4L114.9,35.2L114.9,35.2z M126.9,37.5v-0.3c0.7,0,0.9-0.3,0.9-0.8v-5.4h-0.9 c-0.8,0-1.4,0-1.4,1.3H125l0.1-2.1h6.7l0.1,2.1h-0.4c-0.1-1.3-0.6-1.3-1.4-1.3h-0.9v5.4c0,0.6,0.2,0.8,0.9,0.8v0.3H126.9 L126.9,37.5z M74,30.2v0.4c-1,0.1-1,0.1-1,1.7v1.7c0,0.9,0,1.7,0.5,2.4c0.4,0.5,1,0.6,1.3,0.6c1,0,1.6-0.5,1.9-1.4 c0.2-0.7,0.2-2,0.2-2.8c0-0.3,0-1.1,0-1.4c0-0.7-0.4-0.7-1-0.7v-0.4h2.8v0.4c-0.7,0-0.8,0.1-0.9,0.9c0,0.2-0.1,2.2-0.1,2.5 c0,0.6-0.1,1.1-0.2,1.6c-0.5,2-2.4,2.1-2.9,2.1c-0.4,0-1.2-0.1-1.9-0.5c-1.1-0.7-1.1-1.8-1.1-3v-1.7c0-0.8,0-1.1,0-1.3 c-0.1-0.5-0.3-0.5-0.8-0.6v-0.4L74,30.2L74,30.2z M100.1,30.2v0.4c-0.7,0.1-0.8,0.3-1.4,1.8l-2.2,5.3H96l-2-5.4 c-0.5-1.4-0.6-1.6-1.3-1.7v-0.4h3.5v0.4c-0.6,0-1,0-1,0.5c0,0.2,0.1,0.4,0.3,1l1.3,3.7l1.5-3.9c0.1-0.3,0.2-0.6,0.2-0.8 c0-0.5-0.5-0.6-1-0.6v-0.4H100.1L100.1,30.2z M134.8,37.5v-0.4c0.6-0.1,0.8-0.1,0.9-0.2c0.2-0.2,0.2-0.4,0.2-1.2v-1.3l-1.9-3 c-0.5-0.8-0.5-0.8-1.2-0.8v-0.4h3.8v0.4c-0.8,0-1.1,0-1.1,0.4c0,0.2,0.1,0.4,0.3,0.7l1.1,1.8l1-1.8c0.2-0.4,0.3-0.6,0.3-0.8 c0-0.4-0.3-0.4-0.8-0.4v-0.4h2.9v0.4c-0.7,0-1,0.2-1.8,1.6l-1.1,1.9v1.5c0,1.3,0,1.4,1.1,1.5v0.4L134.8,37.5L134.8,37.5z M106.3,37.5c0-0.5,0.1-1.4,0.2-1.9h-0.4c-0.3,1.3-1,1.2-2.1,1.2c-1,0-1.2-0.3-1.2-0.7v-2.1h0.8c0.9,0,1.2,0.1,1.2,0.9h0.4v-2.4 h-0.4c-0.1,0.7-0.2,0.9-1.2,0.9h-0.8v-2.6h0.9c1.2,0,1.7,0.1,1.9,1.1h0.3l0-1.7h-5.2v0.4c0.5,0.1,0.8,0.1,0.8,0.4 c0.1,0.2,0.1,1,0.1,1.3v2.6c0,0.2,0,1.1,0,1.3c0,0.8-0.1,0.9-0.9,0.9v0.4H106.3L106.3,37.5z M203.5,34.3v0.4 c-0.7,0-0.7,0.2-0.7,1.6v0.6c-0.6,0.4-1.4,0.9-2.8,0.9c-2.5,0-3.7-1.9-3.7-3.8c0-2.3,1.6-3.9,3.6-3.9c1.2,0,2,0.5,2.6,0.8l0.4-0.4 l0.1,2.3l-0.3,0.1c-0.2-0.4-0.4-0.9-0.9-1.5c-0.2-0.2-0.7-0.5-1.5-0.5c-1.3,0-2.3,1.1-2.3,3.2c0,1.7,0.8,3.1,2.3,3.1 c0.8,0,1.2-0.6,1.3-0.6c0.1-0.2,0.2-0.4,0.1-0.7c0-0.9-0.2-1-1-1v-0.4H203.5L203.5,34.3z M109.8,33.6c0.2,0,0.5,0.1,0.7,0.1 c0.8,0,1.5-0.7,1.5-1.2c0-0.8-0.4-1.6-1.7-1.6c-0.2,0-0.3,0-0.4,0V33.6L109.8,33.6z M109.8,35.2c0,1.7,0,1.9,0.9,1.9v0.4h-3.1v-0.4 c0.8-0.1,0.9-0.2,0.9-1c0-0.3,0-0.6,0-0.9v-2.7c0-0.9,0-1.2,0-1.4c-0.1-0.4-0.3-0.5-0.9-0.5v-0.4l3.3,0c1.8,0,2.4,0.9,2.4,1.9 c0,0.7-0.4,1.6-1.5,1.9l1.3,2.3c0.5,0.9,0.7,1.1,1.3,1.1v0.2c-0.2,0-0.3,0-0.5,0c-1.4,0-2-0.5-2.5-1.7l-0.4-0.9 c-0.4-0.9-0.6-0.9-1.3-0.9V35.2L109.8,35.2z M109.8,35.2"></path> </g> <g id="Common_Elements_to_Departments"> <path fill="#FFFFFF" d="M180.9,37.5v-0.3c0.4,0,0.7-0.1,0.7-0.4c0-0.1,0-0.2-0.1-0.3l-0.2-0.6h-2.1l-0.2,0.5c0,0.1-0.1,0.2-0.1,0.4 c0,0.4,0.4,0.4,0.8,0.5l0,0.3l-2.4,0l0-0.3c0.6,0,0.8-0.1,1-0.8l1.6-4.4l-0.1-0.1c0.7-0.2,0.9-0.3,1.2-0.5c0.1,0.4,0.1,0.4,0.3,0.9 l1.3,4c0.2,0.7,0.3,0.9,1,1v0.3H180.9L180.9,37.5z M180.4,32.8l-0.9,2.4h1.7L180.4,32.8L180.4,32.8z M159.9,36.2 c-0.3,0.4-0.9,1.5-2.5,1.5c-1.8,0-2.9-1.3-2.9-3c0-1.6,1-3.2,3-3.2c1,0,1.6,0.4,1.9,0.7l0.4-0.4l0,1.8l-0.3,0.1 c-0.1-0.3-0.2-0.6-0.6-1c-0.2-0.2-0.6-0.6-1.2-0.6c-1.1,0-1.9,0.9-1.9,2.4c0,1.3,0.7,2.5,2,2.5c1,0,1.4-0.6,1.7-1L159.9,36.2 L159.9,36.2z M160.9,37.5l0-0.3c0.7-0.1,0.7-0.2,0.7-0.8c0-0.2,0-0.4,0-0.6v-2.5c0-0.4,0-0.8,0-0.9c0-0.4-0.2-0.4-0.7-0.4v-0.3 l2.5,0V32c-0.5,0.1-0.7,0.1-0.7,0.4c0,0.2-0.1,0.6-0.1,1v0.8c0.5,0,0.9,0,1.4,0c0.5,0,0.9,0,1.4,0l0-1c0-1.1,0-1.1-0.8-1.2v-0.3 h2.5V32c-0.7,0.1-0.7,0.1-0.7,1.2l0,2.5c0,0.2,0,1,0,1.1c0,0.3,0.2,0.4,0.6,0.4l0,0.3h-2.5l0-0.3c0.6-0.1,0.7-0.1,0.8-0.5 c0-0.2,0-0.4,0-0.8v-1.1c-0.5,0-0.9,0-1.3,0c-0.5,0-0.9,0-1.4,0v1.1c0,1.2,0,1.2,0.8,1.3l0,0.3L160.9,37.5L160.9,37.5z M168.2,37.5 l0-0.3c0.6-0.1,0.7-0.1,0.7-0.8v-0.8v-2.4c0-1.2,0-1.3-0.7-1.4v-0.3l2.4,0V32c-0.7,0.1-0.7,0.1-0.7,1.4v2.4c0,0.2,0,0.9,0,1 c0,0.4,0.2,0.4,0.7,0.5l0,0.3L168.2,37.5L168.2,37.5z M151.4,37.5l0-0.3c0.6-0.1,0.7-0.1,0.7-0.8v-0.8v-2.4c0-1.2,0-1.3-0.7-1.4 v-0.3h2.4V32c-0.7,0.1-0.7,0.1-0.7,1.4v2.4c0,0.2,0,0.9,0,1c0,0.4,0.2,0.4,0.7,0.5l0,0.3H151.4L151.4,37.5z M147.8,37.5l0-0.3 c0.7,0,0.7-0.1,0.7-1.2l0-2.9l-2.1,4.5h-0.5L144,33l0,3.5c0,0.6,0.1,0.7,0.7,0.7v0.3h-2v-0.3c0.5,0,0.7-0.1,0.7-0.5 c0-0.2,0-0.7,0.1-1l0.1-2.5c0-0.2,0-0.5,0-0.7c0-0.6-0.1-0.6-0.6-0.6v-0.3h1.8l1.8,4.5l2-4.5h1.8V32c-0.7,0-0.7,0.1-0.7,1l0,2.4 c0,0.4,0,0.9,0,1.2c0,0.4,0.2,0.5,0.7,0.6l0,0.3L147.8,37.5L147.8,37.5z M184,37.5v-0.3c0.5,0,0.7,0,0.7-0.4 c0.1-0.4,0.1-3.9,0.1-4.5c-0.3-0.3-0.5-0.4-0.8-0.4l0-0.3l1.8,0c0.5,0.7,0.6,0.9,1.5,1.9l1.6,2V33c0-0.9,0-1-1-1l0-0.3h2.3l0,0.3 c-0.6,0-0.7,0.1-0.7,1.1l-0.1,4.5h-0.4l-0.5-0.7c-0.3-0.3-0.5-0.7-0.8-1l-2.3-2.9v3c0,1,0.1,1,1,1.1v0.3L184,37.5L184,37.5z M135,34.6c0,2-1.4,3.1-2.9,3.1c-1.7,0-3-1.2-3-3.1c0-1.6,1.1-3.1,3-3C133.8,31.5,135,32.8,135,34.6L135,34.6z M132.1,37.1 c0.3,0,0.8-0.2,1.2-0.7c0.4-0.6,0.5-1.2,0.5-2c0-0.8-0.2-1.4-0.7-1.9c-0.2-0.2-0.6-0.5-1-0.5c-0.5,0-0.9,0.3-1,0.5 c-0.4,0.5-0.6,1.1-0.6,1.9c0,0.8,0.1,1.3,0.5,2C131.3,37,131.8,37.1,132.1,37.1L132.1,37.1z M135.6,37.2v0.3h2.4v-0.3 c-0.6-0.1-0.7-0.1-0.7-0.8l0-1.7h0.6c0.7,0,1,0.1,1,0.7h0.3v-1.9h-0.3c0,0.6-0.2,0.7-0.9,0.7h-0.8l0-2c0.2,0,0.3,0,0.7,0 c1.1,0,1.5,0,1.7,0.9h0.3l-0.1-1.4h-4.3V32c0.4,0,0.6,0.1,0.7,0.3c0,0.2,0,0.8,0,1.1v2.1c0,0.2,0,0.9,0,1 C136.3,37.1,136.2,37.1,135.6,37.2L135.6,37.2z M85.2,37.5l0-0.3c0.6-0.1,0.7-0.1,0.7-0.8v-0.8l0-2.4c0-1.2,0-1.3-0.7-1.4v-0.3h2.4 v0.3c-0.7,0.1-0.7,0.1-0.7,1.4l0,2.4c0,0.2,0,0.9,0,1c0,0.4,0.2,0.4,0.7,0.5l0,0.3H85.2L85.2,37.5z M111,37.5l0-0.3 c0.6-0.1,0.7-0.1,0.7-0.8v-0.8l0-2.4c0-1.2,0-1.3-0.7-1.4v-0.3h2.4v0.3c-0.7,0.1-0.7,0.1-0.7,1.4l0,2.4c0,0.2,0,0.9,0,1 c0,0.4,0.2,0.4,0.7,0.5l0,0.3H111L111,37.5z M78,37.5l0-0.3c0.5,0,0.7,0,0.7-0.4c0.1-0.4,0.1-3.9,0.1-4.5c-0.3-0.3-0.5-0.4-0.9-0.4 v-0.3h1.8c0.5,0.7,0.6,0.9,1.5,1.9l1.6,2l0-2.6c0-0.9,0-1-1-1v-0.3h2.3v0.3c-0.6,0-0.7,0.1-0.7,1.1l-0.1,4.5h-0.3l-0.5-0.7 c-0.3-0.3-0.5-0.7-0.8-1L79.5,33l0,3c0,0.9,0.1,1,1,1.1l0,0.3H78L78,37.5z M106.2,35.6l0.3,0c0.3,1,0.9,1.5,1.7,1.5 c0.6,0,1.2-0.3,1.2-0.9c0-0.7-0.6-0.9-0.9-1c-0.2-0.1-0.5-0.2-0.7-0.3c-0.5-0.2-1.4-0.5-1.4-1.7c0-1.1,0.9-1.7,1.9-1.7 c0.4,0,0.8,0.1,1.3,0.4l0.4-0.3l0.2,1.7l-0.3,0.1c-0.1-0.4-0.2-0.6-0.4-0.9c-0.3-0.4-0.7-0.5-1.1-0.5c-0.6,0-1,0.3-1,0.8 c0,0.7,0.7,0.9,1.3,1.1c0.3,0.1,0.6,0.2,0.8,0.3c0.5,0.3,0.8,0.8,0.8,1.5c0,1-0.8,1.9-2.1,1.9c-0.8,0-1.3-0.3-1.5-0.5l-0.5-0.4 L106.2,35.6L106.2,35.6z M115.8,37.5v-0.2c0.5,0,0.7-0.2,0.7-0.7l0-4.3h-0.7c-0.7,0-1.1,0-1.2,1h-0.3l0-1.6l5.3,0l0.1,1.6h-0.3 c-0.1-1-0.5-1-1.2-1l-0.7,0l0,4.3c0,0.5,0.1,0.7,0.7,0.7v0.2L115.8,37.5L115.8,37.5z M73.5,31.6v0.3c-0.8,0.1-0.8,0.1-0.8,1.3 l0,1.4c0,0.7,0,1.3,0.4,1.9c0.3,0.4,0.8,0.5,1.1,0.5c0.8,0,1.3-0.4,1.5-1.1c0.2-0.5,0.2-1.6,0.2-2.3c0-0.2,0-0.9,0-1.1 c0-0.5-0.3-0.6-0.8-0.6v-0.3h2.2v0.3c-0.6,0-0.7,0.1-0.7,0.7c0,0.1-0.1,1.8-0.1,2c0,0.4,0,0.9-0.1,1.3c-0.4,1.6-1.9,1.7-2.3,1.7 c-0.3,0-1-0.1-1.5-0.4c-0.9-0.6-0.9-1.5-0.9-2.4v-1.3c0-0.6,0-0.9,0-1.1c-0.1-0.4-0.2-0.4-0.7-0.5v-0.3L73.5,31.6L73.5,31.6z M94.3,31.6v0.3c-0.6,0.1-0.6,0.2-1.1,1.4l-1.8,4.3h-0.3l-1.6-4.3c-0.4-1.1-0.4-1.2-1-1.3v-0.3h2.8v0.3c-0.5,0-0.8,0-0.8,0.4 c0,0.2,0,0.3,0.2,0.8l1,3l1.2-3.1c0.1-0.2,0.2-0.5,0.2-0.6c0-0.4-0.4-0.4-0.8-0.4v-0.3H94.3L94.3,31.6z M122.2,37.5l0-0.3 c0.5,0,0.6-0.1,0.8-0.2c0.1-0.1,0.1-0.3,0.1-0.9v-1l-1.6-2.4c-0.4-0.6-0.4-0.6-1-0.7v-0.3h3.1v0.3c-0.6,0-0.9,0-0.9,0.3 c0,0.2,0.1,0.3,0.3,0.6l0.9,1.5l0.8-1.5c0.1-0.3,0.2-0.5,0.2-0.6c0-0.3-0.2-0.3-0.7-0.3v-0.3l2.3,0v0.3c-0.6,0-0.8,0.2-1.4,1.3 l-0.9,1.5V36c0,1.1,0,1.1,0.9,1.2l0,0.3L122.2,37.5L122.2,37.5z M99.4,37.5c0-0.4,0.1-1.1,0.1-1.5h-0.3c-0.2,1.1-0.8,1-1.6,1 c-0.8,0-0.9-0.2-0.9-0.6v-1.6h0.6c0.7,0,0.9,0.1,0.9,0.7h0.3v-1.9h-0.3c-0.1,0.5-0.2,0.7-0.9,0.7h-0.6l0-2.1h0.7 c1,0,1.4,0.1,1.5,0.9h0.3l0-1.4l-4.2,0v0.3c0.4,0,0.6,0.1,0.7,0.3c0,0.2,0,0.8,0,1.1l0,2.1c0,0.2,0,0.9,0,1c0,0.6-0.1,0.7-0.7,0.8 l0,0.3L99.4,37.5L99.4,37.5z M177.1,34.9v0.3c-0.5,0-0.5,0.2-0.6,1.3V37c-0.5,0.3-1.1,0.7-2.3,0.7c-2,0-3-1.5-3-3.1 c0-1.9,1.3-3.1,2.9-3.1c1,0,1.6,0.4,2.1,0.7l0.3-0.3l0,1.8l-0.2,0c-0.1-0.4-0.3-0.8-0.7-1.2c-0.2-0.2-0.6-0.4-1.2-0.4 c-1,0-1.9,0.9-1.9,2.6c0,1.3,0.7,2.5,1.8,2.5c0.7,0,1-0.5,1-0.5c0.1-0.2,0.1-0.3,0.1-0.6c0-0.8-0.1-0.8-0.8-0.8v-0.3H177.1 L177.1,34.9z M102.1,34.3c0.2,0,0.4,0.1,0.5,0.1c0.7,0,1.2-0.5,1.2-1c0-0.7-0.3-1.3-1.4-1.3c-0.2,0-0.2,0-0.4,0L102.1,34.3 L102.1,34.3z M102.1,35.6c0,1.3,0,1.5,0.7,1.5l0,0.3h-2.5l0-0.3c0.6-0.1,0.7-0.2,0.7-0.8c0-0.2,0-0.5,0-0.8v-2.1c0-0.7,0-1,0-1.1 c0-0.3-0.2-0.4-0.7-0.4v-0.3l2.7,0c1.4,0,1.9,0.7,1.9,1.5c0,0.6-0.4,1.3-1.2,1.5l1,1.8c0.4,0.7,0.6,0.8,1.1,0.9v0.2 c-0.1,0-0.3,0-0.4,0c-1.1,0-1.6-0.4-2-1.4l-0.3-0.7c-0.3-0.7-0.5-0.7-1-0.7V35.6L102.1,35.6z M102.1,35.6"></path> <path fill="#FFFFFF" d="M74.7,12.2"></path> <path fill="#FFFFFF" d="M150.1,21.5"></path> <path fill="#FFFFFF" d="M165.7,10.2"></path> <path fill="#FFFFFF" d="M183.9,27.6"></path> <g> <path fill="#FFFFFF" stroke="#FFFFFF" stroke-width="5.000000e-02" stroke-miterlimit="10" d="M74.1,5.1c0-0.4,0-0.8-0.2-1 c-0.2-0.2-0.6-0.3-0.8-0.3c-0.7,0-1,0.4-1,0.5c0,0.1-0.2,0.2-0.2,1.4l0,1.9c0,1.7,0.6,1.9,1.2,1.9c0.3,0,1.1-0.1,1.1-1.4l0.9,0 c0,2.2-1.5,2.2-2,2.2c-0.9,0-2.2-0.1-2.2-2.7l0-2c0-2,0.9-2.5,2.2-2.5c1.4,0,1.9,0.7,1.8,2.1H74.1z"></path> <path fill="#FFFFFF" stroke="#FFFFFF" stroke-width="5.000000e-02" stroke-miterlimit="10" d="M76.4,7.6l0-2.3 c0-1.4,0.7-2.3,2.2-2.3c1.5,0,2.2,0.9,2.2,2.3l0,2.3c0,1.9-0.7,2.7-2.2,2.7C77.1,10.3,76.4,9.6,76.4,7.6z M79.8,7.7l0-2.3 c0-1.4-1-1.5-1.3-1.5c-0.3,0-1.3,0-1.3,1.5l0,2.3c0,1.5,0.4,1.9,1.3,1.9C79.4,9.6,79.8,9.2,79.8,7.7z"></path> <path fill="#FFFFFF" stroke="#FFFFFF" stroke-width="5.000000e-02" stroke-miterlimit="10" d="M82.3,10.2l0-6.9l0.9,0l0,6.2h2.5 v0.8L82.3,10.2z"></path> <path fill="#FFFFFF" stroke="#FFFFFF" stroke-width="5.000000e-02" stroke-miterlimit="10" d="M86.5,10.2l0-6.9h0.9l0,6.2H90v0.8 H86.5z"></path> <path fill="#FFFFFF" stroke="#FFFFFF" stroke-width="5.000000e-02" stroke-miterlimit="10" d="M90.8,10.2l0-6.9l3.6,0l0,0.8 l-2.7,0v2.2l2.5,0V7l-2.5,0l0,2.4l2.7,0v0.8L90.8,10.2z"></path> <path fill="#FFFFFF" stroke="#FFFFFF" stroke-width="5.000000e-02" stroke-miterlimit="10" d="M98.9,5.1c0-0.8-0.3-1.3-1.2-1.3 c-0.3,0-1.3,0-1.3,1.5l0,2.3c0,1.5,0.4,1.9,1.3,1.9c0.6,0,1.1-0.2,1.2-0.3l0-2.1h-1.3V6.4h2.2l0,3.4c-0.6,0.3-1.2,0.5-2.1,0.5 c-1.5,0-2.2-0.8-2.2-2.7l0-2.3c0-1.4,0.7-2.3,2.2-2.3c1.5,0,2.2,0.5,2.1,2H98.9z"></path> <path fill="#FFFFFF" stroke="#FFFFFF" stroke-width="5.000000e-02" stroke-miterlimit="10" d="M101.5,10.2l0-6.9h3.6l0,0.8l-2.7,0 v2.2h2.5V7h-2.5l0,2.4l2.7,0v0.8L101.5,10.2z"></path> <path fill="#FFFFFF" stroke="#FFFFFF" stroke-width="5.000000e-02" stroke-miterlimit="10" d="M108.4,7.6l0-2.3 c0-1.4,0.7-2.3,2.2-2.3c1.5,0,2.2,0.9,2.2,2.3l0,2.3c0,1.9-0.7,2.7-2.2,2.7C109.1,10.3,108.4,9.6,108.4,7.6z M111.8,7.7l0-2.3 c0-1.4-1-1.5-1.3-1.5c-0.3,0-1.3,0-1.3,1.5l0,2.3c0,1.5,0.4,1.9,1.3,1.9C111.4,9.6,111.8,9.2,111.8,7.7z"></path> <path fill="#FFFFFF" stroke="#FFFFFF" stroke-width="5.000000e-02" stroke-miterlimit="10" d="M114.2,10.2l0-6.9l3.4,0l0,0.8 l-2.6,0v2.2l2.4,0V7l-2.4,0l0,3.2H114.2z"></path> <path fill="#FFFFFF" stroke="#FFFFFF" stroke-width="5.000000e-02" stroke-miterlimit="10" d="M120.7,10.2l0-6.9l3.6,0l0,0.8 l-2.7,0v2.2l2.5,0V7l-2.5,0l0,2.4l2.7,0v0.8L120.7,10.2z"></path> <path fill="#FFFFFF" stroke="#FFFFFF" stroke-width="5.000000e-02" stroke-miterlimit="10" d="M130.3,3.2l0,6.9H129l-2.7-6h0l0,6 h-0.8l0-6.9h1.2l2.7,5.9h0l0-5.9H130.3z"></path> <path fill="#FFFFFF" stroke="#FFFFFF" stroke-width="5.000000e-02" stroke-miterlimit="10" d="M135.2,5.1c0-0.8-0.3-1.3-1.2-1.3 c-0.3,0-1.3,0-1.3,1.5l0,2.3c0,1.5,0.4,1.9,1.3,1.9c0.6,0,1.1-0.2,1.2-0.3l0-2.1l-1.3,0V6.4l2.2,0l0,3.4c-0.6,0.3-1.2,0.5-2.1,0.5 c-1.5,0-2.2-0.8-2.2-2.7l0-2.3c0-1.4,0.7-2.3,2.2-2.3c1.5,0,2.2,0.5,2.1,2H135.2z"></path> <path fill="#FFFFFF" stroke="#FFFFFF" stroke-width="5.000000e-02" stroke-miterlimit="10" d="M138.7,10.2l-0.9,0l0-6.9l0.9,0 L138.7,10.2z"></path> <path fill="#FFFFFF" stroke="#FFFFFF" stroke-width="5.000000e-02" stroke-miterlimit="10" d="M145.2,3.2l0,6.9H144l-2.7-6h0l0,6 h-0.8l0-6.9h1.2l2.7,5.9h0l0-5.9H145.2z"></path> <path fill="#FFFFFF" stroke="#FFFFFF" stroke-width="5.000000e-02" stroke-miterlimit="10" d="M146.8,10.2l0-6.9l3.6,0l0,0.8 l-2.7,0v2.2l2.5,0V7l-2.5,0l0,2.4l2.7,0v0.8L146.8,10.2z"></path> <path fill="#FFFFFF" stroke="#FFFFFF" stroke-width="5.000000e-02" stroke-miterlimit="10" d="M151.6,10.2l0-6.9l3.6,0l0,0.8 l-2.7,0v2.2l2.5,0V7l-2.5,0l0,2.4l2.7,0v0.8L151.6,10.2z"></path> <path fill="#FFFFFF" stroke="#FFFFFF" stroke-width="5.000000e-02" stroke-miterlimit="10" d="M157.3,7l0,3.2h-0.9l0-6.9l2.4,0 c1.2,0,1.7,0.9,1.7,1.7c0,0.8-0.5,1.4-1.3,1.6v0c0.8,0.1,1.1,0.4,1.1,1.8c0,0.3,0.1,1.4,0.2,1.8h-0.9c-0.2-0.5-0.2-1.4-0.3-2.3 c-0.1-0.8-0.7-0.9-1-0.9L157.3,7z M157.3,6.2l1.3,0c0.6,0,0.9-0.5,0.9-1.2c0-0.5-0.2-1.1-0.9-1.1h-1.3V6.2z"></path> <path fill="#FFFFFF" stroke="#FFFFFF" stroke-width="5.000000e-02" stroke-miterlimit="10" d="M162.7,10.2h-0.9l0-6.9h0.9 L162.7,10.2z"></path> <path fill="#FFFFFF" stroke="#FFFFFF" stroke-width="5.000000e-02" stroke-miterlimit="10" d="M169.2,3.2l0,6.9l-1.2,0l-2.7-6h0 l0,6l-0.8,0l0-6.9l1.2,0l2.7,5.9h0l0-5.9H169.2z"></path> <path fill="#FFFFFF" stroke="#FFFFFF" stroke-width="5.000000e-02" stroke-miterlimit="10" d="M174.1,5.1c0-0.8-0.3-1.3-1.2-1.3 c-0.3,0-1.3,0-1.3,1.5l0,2.3c0,1.5,0.4,1.9,1.3,1.9c0.6,0,1.1-0.2,1.2-0.3V7.2h-1.3l0-0.8h2.2l0,3.4c-0.6,0.3-1.2,0.5-2.1,0.5 c-1.5,0-2.2-0.8-2.2-2.7l0-2.3c0-1.4,0.7-2.3,2.2-2.3c1.5,0,2.2,0.5,2.1,2H174.1z"></path> </g> <path fill="#FFCF01" d="M26.9,31.5L17.1,18l0,9.8H21l0,9.7l-18.1,0l0-9.7l3.7,0l0-15l-3.7,0l0-9.7l14.2,0l9.8,13.5l9.8-13.5l14.2,0 l0,9.7l-3.7,0l0,15l3.7,0l0,9.7l-18.1,0l0-9.7l3.9,0l0-9.8L26.9,31.5L26.9,31.5z M26.9,31.5"></path> </g> <g id="stroke"> <line fill="none" stroke="#FFFFFF" stroke-width="0.7465" stroke-miterlimit="10" x1="61" y1="3.1" x2="61" y2="37.5"></line> </g> <g id="NERS"> <g> <path fill="#FFFFFF" d="M80,14l0,13h-2.3l-5.1-11.3h0l0,11.3H71l0-13l2.3,0l5.1,11.1h0l0-11.1L80,14z"></path> <path fill="#FFFFFF" d="M82.5,14l1.7,0l0,8.3c0,2.8,0.9,3.6,2.4,3.6s2.4-0.7,2.4-3.6l0-8.3l1.7,0l0,8.2c0,3.6-1.3,5-4.1,5 c-2.8,0-4.1-1.4-4.1-5L82.5,14z"></path> <path fill="#FFFFFF" d="M98.8,17.6c0-0.7,0-1.5-0.4-1.9c-0.3-0.4-1.1-0.6-1.5-0.6c-1.4,0-1.9,0.8-2,1c-0.1,0.1-0.4,0.5-0.4,2.7 l0,3.5c0,3.2,1,3.6,2.3,3.6c0.5,0,2-0.2,2.1-2.7h1.7c0.1,4.1-2.8,4.1-3.7,4.1c-1.6,0-4.1-0.1-4.1-5.2v-3.7c0-3.7,1.6-4.7,4.2-4.7 c2.6,0,3.6,1.3,3.4,3.9H98.8z"></path> <path fill="#FFFFFF" d="M102.6,27l0-13h1.7l0,11.6h4.8l0,1.4L102.6,27z"></path> <path fill="#FFFFFF" d="M110.2,27l0-13l6.7,0l0,1.4l-5,0l0,4.2l4.7,0v1.4h-4.7l0,4.5h5.1l0,1.4L110.2,27z"></path> <path fill="#FFFFFF" d="M121.6,14l2.1,0l4.2,13h-1.9l-0.9-3.1h-5l-1,3.1l-1.7,0L121.6,14z M122.7,15.6L122.7,15.6l-2.1,6.9h4.2 L122.7,15.6z"></path> <path fill="#FFFFFF" d="M130.9,21l0,6h-1.7l0-13l4.5,0c2.3,0,3.1,1.6,3.1,3.2c0,1.5-0.8,2.7-2.4,3v0c1.5,0.2,2,0.7,2.1,3.3 c0,0.6,0.2,2.6,0.4,3.4h-1.7c-0.5-0.9-0.4-2.6-0.5-4.3c-0.1-1.6-1.4-1.7-2-1.7H130.9z M130.9,19.6l2.5,0c1.2,0,1.8-1,1.8-2.2 c0-0.9-0.5-2-1.7-2l-2.5,0L130.9,19.6z"></path> <path fill="#FFFFFF" d="M144.6,27l0-13l6.7,0l0,1.4l-5,0l0,4.2l4.7,0v1.4l-4.7,0l0,4.5l5.1,0l0,1.4L144.6,27z"></path> <path fill="#FFFFFF" d="M162.2,14l0,13h-2.3l-5.1-11.3h0l0,11.3h-1.5l0-13l2.3,0l5.1,11.1h0l0-11.1L162.2,14z"></path> <path fill="#FFFFFF" d="M171,17.5c0-1.5-0.6-2.4-2.3-2.4c-0.5,0-2.4,0.1-2.4,2.8l0,4.4c0,2.8,0.8,3.6,2.4,3.6c1.2,0,2-0.3,2.3-0.6 l0-3.9l-2.4,0V20l4.1,0l0,6.3c-1.1,0.6-2.3,1-4,1c-2.8,0-4.1-1.4-4.1-5l0-4.3c0-2.6,1.3-4.2,4.1-4.2c2.8,0,4.1,1,4,3.7L171,17.5z"></path> <path fill="#FFFFFF" d="M177.1,27h-1.7l0-13l1.7,0L177.1,27z"></path> <path fill="#FFFFFF" d="M188.8,14l0,13h-2.3l-5.1-11.3h0l0,11.3h-1.5l0-13h2.3l5.1,11.1h0l0-11.1H188.8z"></path> <path fill="#FFFFFF" d="M191.4,27l0-13l6.7,0v1.4l-5,0l0,4.2l4.7,0v1.4H193l0,4.5h5.1V27L191.4,27z"></path> <path fill="#FFFFFF" d="M199.9,27l0-13l6.7,0v1.4l-5,0l0,4.2l4.7,0v1.4h-4.7l0,4.5h5.1V27L199.9,27z"></path> <path fill="#FFFFFF" d="M210.1,21.1l0,6h-1.7l0-13l4.5,0c2.3,0,3.1,1.6,3.1,3.2c0,1.5-0.8,2.7-2.4,3v0c1.5,0.2,2,0.7,2.1,3.3 c0,0.6,0.2,2.6,0.4,3.4l-1.7,0c-0.5-0.9-0.4-2.6-0.5-4.3c-0.1-1.6-1.4-1.7-2-1.7H210.1z M210.1,19.6h2.5c1.2,0,1.8-1,1.8-2.2 c0-0.9-0.5-2-1.7-2h-2.5L210.1,19.6z"></path> <path fill="#FFFFFF" d="M219.9,27h-1.7l0-13h1.7L219.9,27z"></path> <path fill="#FFFFFF" d="M231.6,14l0,13l-2.3,0l-5.1-11.3h0l0,11.3h-1.5l0-13l2.3,0l5.1,11.1h0l0-11.1H231.6z"></path> <path fill="#FFFFFF" d="M240.4,17.5c0-1.5-0.6-2.4-2.3-2.4c-0.5,0-2.4,0.1-2.4,2.8v4.4c0,2.8,0.8,3.6,2.4,3.6c1.2,0,2-0.3,2.3-0.6 l0-3.9H238V20l4.1,0l0,6.3c-1.1,0.6-2.3,1-4,1c-2.8,0-4.1-1.4-4.1-5V18c0-2.6,1.3-4.2,4.1-4.2c2.8,0,4.1,1,4,3.7H240.4z"></path> <path fill="#FFFFFF" d="M257.9,25.7c-1,1.2-2.1,1.6-3.6,1.6c-2.3,0-4.3-1.2-4.3-3.7c0-2.1,1.2-2.9,2.9-4c-0.8-0.9-1.7-2.1-1.7-3.3 c0-1.9,1.6-2.6,3.2-2.6c1.7,0,3,0.8,3,2.6c0,1.4-1.1,2.6-2.2,3.5l2.5,3.2c0.3-0.8,0.3-1.7,0.3-3.7h1.5c0,2.8-0.3,4-0.8,4.9 l2.1,2.8l-1.9,0L257.9,25.7z M253.8,20.6c-1.1,0.8-2.1,1.5-2.1,3c0,1.4,1.1,2.4,2.7,2.4c1.2,0,2-0.3,2.6-1.3L253.8,20.6z M255.7,16.5c0-0.9-0.5-1.5-1.4-1.5c-0.8,0-1.4,0.6-1.4,1.5c0,0.9,0.9,1.7,1.4,2.3C254.9,18.3,255.7,17.5,255.7,16.5z"></path> <path fill="#FFFFFF" d="M269.5,21.1l0,6h-1.7l0-13l4.5,0c2.3,0,3.1,1.6,3.1,3.2c0,1.5-0.8,2.7-2.4,3v0c1.5,0.2,2,0.7,2.1,3.3 c0,0.6,0.2,2.6,0.4,3.4l-1.7,0c-0.5-0.9-0.4-2.6-0.5-4.3c-0.1-1.6-1.4-1.7-2-1.7H269.5z M269.5,19.6h2.5c1.2,0,1.8-1,1.8-2.2 c0-0.9-0.5-2-1.7-2h-2.5L269.5,19.6z"></path> <path fill="#FFFFFF" d="M280.3,14h2.1l4.2,13h-1.9l-0.9-3.1l-5,0l-1,3.1h-1.7L280.3,14z M281.3,15.6L281.3,15.6l-2.1,6.9l4.2,0 L281.3,15.6z"></path> <path fill="#FFFFFF" d="M288,14l4,0c1.7,0,2.8,0.6,3.5,2c0.5,1.1,0.6,3.7,0.6,4.1c0,2.8-0.3,4.4-0.8,5.2c-0.7,1.1-2,1.7-4.3,1.7 l-3,0L288,14z M289.6,25.6l1.6,0c2.3,0,3.2-0.9,3.2-3.9v-2.6c0-2.6-0.8-3.6-2.5-3.6l-2.2,0L289.6,25.6z"></path> <path fill="#FFFFFF" d="M300.4,27h-1.7l0-13l1.7,0L300.4,27z"></path> <path fill="#FFFFFF" d="M303,22.3V18c0-2.6,1.3-4.2,4.1-4.2c2.8,0,4.1,1.7,4.1,4.2v4.3c0,3.6-1.3,5-4.1,5 C304.3,27.3,303,25.9,303,22.3z M309.5,22.4V18c0-2.7-1.9-2.8-2.4-2.8c-0.5,0-2.4,0.1-2.4,2.8v4.4c0,2.8,0.8,3.6,2.4,3.6 S309.5,25.2,309.5,22.4z"></path> <path fill="#FFFFFF" d="M313.6,27l0-13l1.7,0l0,11.6l4.8,0V27L313.6,27z"></path> <path fill="#FFFFFF" d="M321.1,22.3V18c0-2.6,1.3-4.2,4.1-4.2c2.8,0,4.1,1.7,4.1,4.2v4.3c0,3.6-1.3,5-4.1,5 C322.4,27.3,321.1,25.9,321.1,22.3z M327.6,22.4V18c0-2.7-1.9-2.8-2.4-2.8c-0.5,0-2.4,0.1-2.4,2.8v4.4c0,2.8,0.8,3.6,2.4,3.6 C326.7,25.9,327.6,25.2,327.6,22.4z"></path> <path fill="#FFFFFF" d="M337.9,17.5c0-1.5-0.6-2.4-2.3-2.4c-0.5,0-2.4,0.1-2.4,2.8v4.4c0,2.8,0.8,3.6,2.4,3.6c1.2,0,2-0.3,2.3-0.6 l0-3.9h-2.4V20l4.1,0l0,6.3c-1.1,0.6-2.3,1-4,1c-2.8,0-4.1-1.4-4.1-5V18c0-2.6,1.3-4.2,4.1-4.2c2.8,0,4.1,1,4,3.7H337.9z"></path> <path fill="#FFFFFF" d="M344.1,27h-1.7l0-13l1.7,0L344.1,27z"></path> <path fill="#FFFFFF" d="M352.5,17.6c0-0.7,0-1.5-0.4-1.9c-0.3-0.4-1.1-0.6-1.5-0.6c-1.4,0-1.9,0.8-2,1c-0.1,0.1-0.4,0.5-0.4,2.7 v3.5c0,3.2,1,3.6,2.3,3.6c0.5,0,2-0.2,2.1-2.7h1.7c0.1,4.1-2.8,4.1-3.7,4.1c-1.6,0-4.1-0.1-4.1-5.2v-3.7c0-3.7,1.6-4.7,4.2-4.7 c2.6,0,3.6,1.3,3.4,3.9H352.5z"></path> <path fill="#FFFFFF" d="M359.3,14.1h2.1l4.2,13l-1.9,0l-0.9-3.1h-5l-1,3.1l-1.7,0L359.3,14.1z M360.3,15.6L360.3,15.6l-2.1,6.9 h4.2L360.3,15.6z"></path> <path fill="#FFFFFF" d="M366.9,27.1l0-13h1.7l0,11.6l4.8,0v1.4L366.9,27.1z"></path> <path fill="#FFFFFF" d="M381.5,23.2v0.4c0,1.8,1.1,2.3,2.2,2.3c1.3,0,2.3-0.6,2.3-2.1c0-2.9-5.8-2.6-5.8-6.5 c0-2.3,1.6-3.5,3.8-3.5c2.4,0,3.7,1.2,3.6,3.8h-1.7c0-1.4-0.4-2.4-2-2.4c-1,0-2,0.5-2,1.9c0,2.9,5.8,2.4,5.8,6.6 c0,2.7-1.9,3.6-4,3.6c-3.8,0-3.8-2.9-3.8-4.1H381.5z"></path> <path fill="#FFFFFF" d="M395.5,17.6c0-0.7,0-1.5-0.4-1.9c-0.3-0.4-1.1-0.6-1.5-0.6c-1.4,0-1.9,0.8-2,1c-0.1,0.1-0.4,0.5-0.4,2.7 v3.5c0,3.2,1,3.6,2.3,3.6c0.5,0,2-0.2,2.1-2.7h1.7c0.1,4.1-2.8,4.1-3.7,4.1c-1.6,0-4.1-0.1-4.1-5.1v-3.7c0-3.7,1.6-4.7,4.2-4.7 c2.6,0,3.6,1.3,3.4,3.9L395.5,17.6z"></path> <path fill="#FFFFFF" d="M401.2,27.1h-1.7l0-13l1.7,0L401.2,27.1z"></path> <path fill="#FFFFFF" d="M403.9,27.1l0-13l6.7,0v1.4l-5,0l0,4.2l4.7,0v1.4l-4.7,0l0,4.5l5.1,0v1.4L403.9,27.1z"></path> <path fill="#FFFFFF" d="M421.5,14.1l0,13h-2.3l-5.1-11.3h0l0,11.3h-1.5l0-13l2.3,0l5.1,11.1h0l0-11.1H421.5z"></path> <path fill="#FFFFFF" d="M429.7,17.6c0-0.7,0-1.5-0.4-1.9c-0.3-0.4-1.1-0.6-1.5-0.6c-1.4,0-1.9,0.8-2,1c-0.1,0.1-0.4,0.5-0.4,2.7 v3.5c0,3.2,1,3.6,2.3,3.6c0.5,0,2-0.2,2.1-2.7l1.7,0c0.1,4.1-2.8,4.1-3.7,4.1c-1.6,0-4.1-0.1-4.1-5.2v-3.7c0-3.7,1.6-4.7,4.2-4.7 c2.6,0,3.6,1.3,3.4,3.9H429.7z"></path> <path fill="#FFFFFF" d="M433.6,27.1l0-13l6.7,0v1.4l-5,0l0,4.2l4.7,0v1.4l-4.7,0l0,4.5l5.1,0v1.4L433.6,27.1z"></path> <path fill="#FFFFFF" d="M443.4,23.2v0.4c0,1.8,1.1,2.3,2.2,2.3c1.3,0,2.3-0.6,2.3-2.1c0-2.9-5.8-2.6-5.8-6.5 c0-2.3,1.6-3.5,3.8-3.5c2.4,0,3.7,1.2,3.6,3.8l-1.7,0c0-1.4-0.4-2.4-2-2.4c-1,0-2,0.5-2,1.9c0,2.9,5.8,2.4,5.8,6.6 c0,2.7-1.9,3.6-4,3.6c-3.8,0-3.8-2.9-3.8-4.1H443.4z"></path> </g> </g> </svg> 